<svg xmlns="http://www.w3.org/2000/svg" xmlns:xlink="http://www.w3.org/1999/xlink" xmlns:lucid="lucid" width="1359.51" height="1272.64"><g transform="translate(-131.49382716049382 -3.6666666666666643)" lucid:page-tab-id="0_0"><path d="M0 0h1500v1500H0z" fill="#fff"/><path d="M522.05 421.03c0 44.75-36.27 81.02-81.02 81.02-44.75 0-81.03-36.27-81.03-81.02 0-44.75 36.28-81.03 81.03-81.03s81.02 36.28 81.02 81.03z" stroke="#5e5e5e" stroke-width="3" fill="#fff"/><use xlink:href="#a" transform="matrix(1,0,0,1,365,345) translate(38.29012345679013 79.93402777777777)"/><path d="M441.03 161v159M441.03 161.03V160" stroke="#5e5e5e" stroke-width="2" fill="none"/><path d="M441.03 335.26L436.4 321h9.26z" stroke="#5e5e5e" stroke-width="2" fill="#5e5e5e"/><use xlink:href="#b" transform="matrix(1,0,0,1,449.02649730553514,227.91659291235845) translate(0 14.222222222222223)"/><use xlink:href="#c" transform="matrix(1,0,0,1,449.02649730553514,227.91659291235845) translate(64.09876543209877 14.222222222222223)"/><use xlink:href="#d" transform="matrix(1,0,0,1,449.02649730553514,227.91659291235845) translate(0 35.55555555555556)"/><use xlink:href="#e" transform="matrix(1,0,0,1,449.02649730553514,227.91659291235845) translate(9.876543209876544 35.55555555555556)"/><use xlink:href="#f" transform="matrix(1,0,0,1,449.02649730553514,227.91659291235845) translate(79.01234567901237 35.55555555555556)"/><path d="M1015.04 223.46c0 22.1-17.9 40-40 40s-40-17.9-40-40 17.9-40 40-40 40 17.9 40 40z" stroke="#5e5e5e" stroke-width="3" fill="#fff"/><use xlink:href="#g" transform="matrix(1,0,0,1,940.0437632970837,188.46203198379305) translate(15.246913580246915 39.65277777777778)"/><path d="M1408.03 224.96c0 22.1-17.9 40-40 40s-40-17.9-40-40 17.9-40 40-40 40 17.9 40 40z" stroke="#5e5e5e" stroke-width="3" fill="#fff"/><use xlink:href="#h" transform="matrix(1,0,0,1,1333.0345319830972,189.96296756332563) translate(-2.1944444444444358 39)"/><path d="M1015.04 616.54c0 22.1-17.9 40-40 40s-40-17.9-40-40 17.9-40 40-40 40 17.9 40 40z" stroke="#5e5e5e" stroke-width="3" fill="#fff"/><use xlink:href="#i" transform="matrix(1,0,0,1,940.0437632970837,581.537968016207) translate(-2.5308641975308674 39.44444444444444)"/><path d="M1408.03 618.04c0 22.1-17.9 40-40 40s-40-17.9-40-40 17.9-40 40-40 40 17.9 40 40z" stroke="#5e5e5e" stroke-width="3" fill="#fff"/><use xlink:href="#j" transform="matrix(1,0,0,1,1333.0345319830972,583.0389035957395) translate(4.228395061728399 39.65277777777778)"/><path d="M524.55 421.03h444.5c3.3 0 6-2.7 6-6V283.46" stroke="#5e5e5e" stroke-width="2" fill="none"/><path d="M524.58 422.03h-1.06l.03-1v-1h1.03z" fill="#5e5e5e"/><path d="M975.04 268.2l4.64 14.26h-9.27z" stroke="#5e5e5e" stroke-width="2" fill="#5e5e5e"/><use xlink:href="#k" transform="matrix(1,0,0,1,927.5375904575775,338.3302670689441) translate(0 14.222222222222223)"/><path d="M524.55 421.03h444.5c3.3 0 6 2.68 6 6v129.5" stroke="#5e5e5e" stroke-width="2" fill="none"/><path d="M524.58 422.03h-1.06l.03-1v-1h1.03z" fill="#5e5e5e"/><path d="M975.04 571.8l-4.63-14.26h9.28z" stroke="#5e5e5e" stroke-width="2" fill="#5e5e5e"/><use xlink:href="#l" transform="matrix(1,0,0,1,928.5252447785653,482.35412130194135) translate(0 14.222222222222223)"/><path d="M524.55 421.03h837.48c3.32 0 6-2.7 6-6V284.97" stroke="#5e5e5e" stroke-width="2" fill="none"/><path d="M524.58 422.03h-1.06l.03-1v-1h1.03z" fill="#5e5e5e"/><path d="M1368.03 269.7l4.64 14.27h-9.27z" stroke="#5e5e5e" stroke-width="2" fill="#5e5e5e"/><use xlink:href="#m" transform="matrix(1,0,0,1,1320.528359143591,334.15566259842245) translate(0 14.222222222222223)"/><path d="M524.55 421.03h837.48c3.32 0 6 2.68 6 6v131" stroke="#5e5e5e" stroke-width="2" fill="none"/><path d="M524.58 422.03h-1.06l.03-1v-1h1.03z" fill="#5e5e5e"/><path d="M1368.03 573.3l-4.63-14.26h9.27z" stroke="#5e5e5e" stroke-width="2" fill="#5e5e5e"/><use xlink:href="#n" transform="matrix(1,0,0,1,1322.5036677855664,482.3541213019414) translate(0 14.222222222222223)"/><path d="M932.54 223.46h-48.5c-3.32 0-6 2.7-6 6v132.96c0 3.32-2.7 6-6 6H523.07" stroke="#5e5e5e" stroke-width="2" fill="none"/><path d="M933.54 223.44l.04 1.02h-1.06v-2h1.08z" fill="#5e5e5e"/><path d="M507.82 368.42l14.26-4.63v9.26z" stroke="#5e5e5e" stroke-width="2" fill="#5e5e5e"/><path d="M1325.53 224.96h-41.5c-3.3 0-6 2.7-6 6v131.46c0 3.32-2.68 6-6 6h-292c0-2.76-2.22-5-5-5-2.75 0-5 2.24-5 5H523.1" stroke="#5e5e5e" stroke-width="2" fill="none"/><path d="M1326.53 224.94l.04 1.02h-1.06v-2h1.1z" fill="#5e5e5e"/><path d="M507.82 368.42l14.26-4.63v9.26z" stroke="#5e5e5e" stroke-width="2" fill="#5e5e5e"/><use xlink:href="#o" transform="matrix(1,0,0,1,566.225544044369,343.09003148220745) translate(0 14.222222222222223)"/><path d="M932.54 616.54h-48.5c-3.32 0-6-2.7-6-6V471.66c0-3.32-2.7-6-6-6H528.9" stroke="#5e5e5e" stroke-width="2" fill="none"/><path d="M933.54 616.52l.04 1.02h-1.06v-2h1.08z" fill="#5e5e5e"/><path d="M513.65 465.66l14.27-4.64v9.27z" stroke="#5e5e5e" stroke-width="2" fill="#5e5e5e"/><path d="M1325.53 618.04h-41.5c-3.3 0-6-2.7-6-6V471.66c0-3.32-2.68-6-6-6h-292c0-2.76-2.22-5-5-5-2.75 0-5 2.24-5 5h-441.1" stroke="#5e5e5e" stroke-width="2" fill="none"/><path d="M1326.53 618.02l.04 1.02h-1.06v-2h1.1z" fill="#5e5e5e"/><path d="M513.65 465.66l14.27-4.64v9.27z" stroke="#5e5e5e" stroke-width="2" fill="#5e5e5e"/><use xlink:href="#o" transform="matrix(1,0,0,1,563.900420572615,469.6585774025449) translate(0 14.222222222222223)"/><path d="M260 120c0 22.1-17.9 40-40 40s-40-17.9-40-40 17.9-40 40-40 40 17.9 40 40z" stroke="#5e5e5e" stroke-width="3" fill="#fff"/><use xlink:href="#p" transform="matrix(1,0,0,1,185,85) translate(-1.0277777777777715 39)"/><path d="M320 783.8c0 22.1-17.9 40-40 40s-40-17.9-40-40 17.9-40 40-40 40 17.9 40 40z" stroke="#5e5e5e" stroke-width="3" fill="#fff"/><use xlink:href="#q" transform="matrix(1,0,0,1,245,748.8018938577234) translate(11.60493827160494 39.65277777777778)"/><path d="M642.05 783.8c0 22.1-17.9 40-40 40s-40-17.9-40-40 17.9-40 40-40 40 17.9 40 40z" stroke="#5e5e5e" stroke-width="3" fill="#fff"/><use xlink:href="#r" transform="matrix(1,0,0,1,567.0529946110703,748.8018938577234) translate(3.6111111111111143 39.65277777777778)"/><path d="M320 983.8c0 22.1-17.9 40-40 40s-40-17.9-40-40 17.9-40 40-40 40 17.9 40 40z" stroke="#5e5e5e" stroke-width="3" fill="#fff"/><use xlink:href="#s" transform="matrix(1,0,0,1,245,948.8018938577234) translate(18.3641975308642 39.65277777777778)"/><path d="M642.05 983.8c0 22.1-17.9 40-40 40s-40-17.9-40-40 17.9-40 40-40 40 17.9 40 40z" stroke="#5e5e5e" stroke-width="3" fill="#fff"/><use xlink:href="#t" transform="matrix(1,0,0,1,567.0529946110703,948.8018938577234) translate(10.370370370370374 39.65277777777778)"/><path d="M320 1183.8c0 22.1-17.9 40-40 40s-40-17.9-40-40 17.9-40 40-40 40 17.9 40 40z" stroke="#5e5e5e" stroke-width="3" fill="#fff"/><use xlink:href="#u" transform="matrix(1,0,0,1,245,1148.8018938577234) translate(10.956790123456795 39.65277777777778)"/><path d="M642.05 1183.8c0 22.1-17.9 40-40 40s-40-17.9-40-40 17.9-40 40-40 40 17.9 40 40z" stroke="#5e5e5e" stroke-width="3" fill="#fff"/><use xlink:href="#v" transform="matrix(1,0,0,1,567.0529946110703,1148.8018938577234) translate(2.962962962962962 39.65277777777778)"/><path d="M441.03 504.55V777.8c0 3.32 2.68 6 6 6h95.02" stroke="#5e5e5e" stroke-width="2" fill="none"/><path d="M441 503.55h1.03v1.03h-2v-1.06z" fill="#5e5e5e"/><path d="M557.32 783.8l-14.27 4.64v-9.27z" stroke="#5e5e5e" stroke-width="2" fill="#5e5e5e"/><use xlink:href="#w" transform="matrix(1,0,0,1,485.7082315676827,758.4685605243901) translate(0 14.222222222222223)"/><path d="M441.03 504.55V777.8c0 3.32-2.7 6-6 6H340" stroke="#5e5e5e" stroke-width="2" fill="none"/><path d="M441 503.55h1.03v1.03h-2v-1.06z" fill="#5e5e5e"/><path d="M324.74 783.8l14.26-4.63v9.27z" stroke="#5e5e5e" stroke-width="2" fill="#5e5e5e"/><use xlink:href="#x" transform="matrix(1,0,0,1,368.8784466169684,758.4685605243901) translate(0 14.222222222222223)"/><path d="M441.03 504.55V977.8c0 3.32 2.68 6 6 6h95.02" stroke="#5e5e5e" stroke-width="2" fill="none"/><path d="M441 503.55h1.03v1.03h-2v-1.06z" fill="#5e5e5e"/><path d="M557.32 983.8l-14.27 4.64v-9.27z" stroke="#5e5e5e" stroke-width="2" fill="#5e5e5e"/><use xlink:href="#y" transform="matrix(1,0,0,1,497.9490628808354,958.4685605243901) translate(0 14.222222222222223)"/><path d="M441.03 504.55V977.8c0 3.32-2.7 6-6 6H340" stroke="#5e5e5e" stroke-width="2" fill="none"/><path d="M441 503.55h1.03v1.03h-2v-1.06z" fill="#5e5e5e"/><path d="M324.74 983.8l14.26-4.63v9.27z" stroke="#5e5e5e" stroke-width="2" fill="#5e5e5e"/><use xlink:href="#z" transform="matrix(1,0,0,1,351.8105025545635,958.4685605243901) translate(0 14.222222222222223)"/><path d="M441.03 504.55v673.25c0 3.32 2.68 6 6 6h95.02" stroke="#5e5e5e" stroke-width="2" fill="none"/><path d="M441 503.55h1.03v1.03h-2v-1.06z" fill="#5e5e5e"/><path d="M557.32 1183.8l-14.27 4.64v-9.27z" stroke="#5e5e5e" stroke-width="2" fill="#5e5e5e"/><use xlink:href="#A" transform="matrix(1,0,0,1,499.3971884310224,1158.4685605243899) translate(0 14.222222222222223)"/><path d="M441.03 504.55v673.25c0 3.32-2.7 6-6 6H340" stroke="#5e5e5e" stroke-width="2" fill="none"/><path d="M441 503.55h1.03v1.03h-2v-1.06z" fill="#5e5e5e"/><path d="M324.74 1183.8l14.26-4.63v9.27z" stroke="#5e5e5e" stroke-width="2" fill="#5e5e5e"/><use xlink:href="#B" transform="matrix(1,0,0,1,351.82511515417707,1158.4685605243899) translate(0 14.222222222222223)"/><path d="M1017.54 616.54h33c3.32 0 6-2.7 6-6V126c0-3.3-2.68-6-6-6H280" stroke="#5e5e5e" stroke-width="2" fill="none"/><path d="M1017.57 617.54h-1.1l.08-.98-.04-1.02h1.07z" fill="#5e5e5e"/><path d="M264.74 120l14.26-4.64v9.28z" stroke="#5e5e5e" stroke-width="2" fill="#5e5e5e"/><path d="M1017.54 223.46h33c3.32 0 6-2.68 6-6V126c0-3.3-2.68-6-6-6H280" stroke="#5e5e5e" stroke-width="2" fill="none"/><path d="M1017.57 224.46h-1.1l.08-.98-.04-1.02h1.07z" fill="#5e5e5e"/><path d="M264.74 120l14.26-4.64v9.28z" stroke="#5e5e5e" stroke-width="2" fill="#5e5e5e"/><path d="M1410.54 224.96h33c3.3 0 6-2.68 6-6V126c0-3.3-2.7-6-6-6H280" stroke="#5e5e5e" stroke-width="2" fill="none"/><path d="M1410.56 225.96h-1.08l.06-.98-.04-1.02h1.06z" fill="#5e5e5e"/><path d="M264.74 120l14.26-4.64v9.28z" stroke="#5e5e5e" stroke-width="2" fill="#5e5e5e"/><use xlink:href="#C" transform="matrix(1,0,0,1,939.0816804347875,94.66666666666667) translate(0 14.222222222222223)"/><path d="M220 162.5V356c0 3.32 2.7 6 6 6h138.85" stroke="#5e5e5e" stroke-width="2" fill="none"/><path d="M219.98 161.5l1.02-.03v1.06h-2v-1.1z" fill="#5e5e5e"/><path d="M380.12 362l-14.27 4.65v-9.27z" stroke="#5e5e5e" stroke-width="2" fill="#5e5e5e"/><use xlink:href="#b" transform="matrix(1,0,0,1,228.00000000000003,228.7858915645062) translate(0 14.222222222222223)"/><use xlink:href="#c" transform="matrix(1,0,0,1,228.00000000000003,228.7858915645062) translate(64.09876543209877 14.222222222222223)"/><use xlink:href="#d" transform="matrix(1,0,0,1,228.00000000000003,228.7858915645062) translate(0 35.55555555555556)"/><use xlink:href="#e" transform="matrix(1,0,0,1,228.00000000000003,228.7858915645062) translate(9.876543209876544 35.55555555555556)"/><use xlink:href="#f" transform="matrix(1,0,0,1,228.00000000000003,228.7858915645062) translate(79.01234567901237 35.55555555555556)"/><path d="M1410.54 618.04H1474c3.3 0 6-2.7 6-6V46c0-3.3-2.7-6-6-6H226c-3.3 0-6 2.7-6 6v14" stroke="#5e5e5e" stroke-width="2" fill="none"/><path d="M1410.56 619.04h-1.08l.06-.98-.04-1.02h1.06z" fill="#5e5e5e"/><path d="M220 75.26L215.36 61h9.28z" stroke="#5e5e5e" stroke-width="2" fill="#5e5e5e"/><use xlink:href="#D" transform="matrix(1,0,0,1,940.9106066810949,14.666666666666664) translate(0 14.222222222222223)"/><use xlink:href="#E" transform="matrix(1,0,0,1,940.9106066810949,14.666666666666664) translate(64.09876543209879 14.222222222222223)"/><use xlink:href="#F" transform="matrix(1,0,0,1,940.9106066810949,14.666666666666664) translate(93.33333333333336 14.222222222222223)"/><path d="M602.05 741.3V623.7c0-3.3-2.68-6-6-6h-108.9c-3.3 0-6-2.67-6-6V511.64" stroke="#5e5e5e" stroke-width="2" fill="none"/><path d="M603.05 742.36l-.98-.06-1.02.04v-1.06h2z" fill="#5e5e5e"/><path d="M481.16 496.36l4.64 14.27h-9.27z" stroke="#5e5e5e" stroke-width="2" fill="#5e5e5e"/><path d="M602.05 941.3v-21.5c0-3.3-2.68-6-6-6h-108.9c-3.3 0-6-2.68-6-6v-119c-2.75 0-5-2.24-5-5s2.25-5 5-5V511.63" stroke="#5e5e5e" stroke-width="2" fill="none"/><path d="M603.05 942.36l-.98-.06-1.02.04v-1.06h2z" fill="#5e5e5e"/><path d="M481.16 496.36l4.64 14.27h-9.27z" stroke="#5e5e5e" stroke-width="2" fill="#5e5e5e"/><path d="M602.05 1141.3v-21.5c0-3.3-2.68-6-6-6h-108.9c-3.3 0-6-2.68-6-6v-119c-2.75 0-5-2.24-5-5s2.25-5 5-5v-190c-2.75 0-5-2.24-5-5s2.25-5 5-5V511.63" stroke="#5e5e5e" stroke-width="2" fill="none"/><path d="M603.05 1142.36l-.98-.06-1.02.04v-1.06h2z" fill="#5e5e5e"/><path d="M481.16 496.36l4.64 14.27h-9.27z" stroke="#5e5e5e" stroke-width="2" fill="#5e5e5e"/><path d="M280 741.3V623.7c0-3.3 2.7-6 6-6h150.03c0-2.75 2.24-5 5-5s5 2.25 5 5h29.13c3.32 0 6-2.67 6-6V511.64" stroke="#5e5e5e" stroke-width="2" fill="none"/><path d="M281 742.36l-.98-.06-1.02.04v-1.06h2z" fill="#5e5e5e"/><path d="M481.16 496.36l4.64 14.27h-9.27z" stroke="#5e5e5e" stroke-width="2" fill="#5e5e5e"/><path d="M280 941.3v-21.5c0-3.3 2.7-6 6-6h150.03c0-2.76 2.24-5 5-5s5 2.24 5 5h29.13c3.32 0 6-2.68 6-6v-119c-2.76 0-5-2.24-5-5s2.24-5 5-5V511.63" stroke="#5e5e5e" stroke-width="2" fill="none"/><path d="M281 942.36l-.98-.06-1.02.04v-1.06h2z" fill="#5e5e5e"/><path d="M481.16 496.36l4.64 14.27h-9.27z" stroke="#5e5e5e" stroke-width="2" fill="#5e5e5e"/><path d="M280 1141.3v-21.5c0-3.3 2.7-6 6-6h150.03c0-2.76 2.24-5 5-5s5 2.24 5 5h29.13c3.32 0 6-2.68 6-6v-119c-2.76 0-5-2.24-5-5s2.24-5 5-5v-190c-2.76 0-5-2.24-5-5s2.24-5 5-5V511.63" stroke="#5e5e5e" stroke-width="2" fill="none"/><path d="M281 1142.36l-.98-.06-1.02.04v-1.06h2z" fill="#5e5e5e"/><path d="M481.16 496.36l4.64 14.27h-9.27z" stroke="#5e5e5e" stroke-width="2" fill="#5e5e5e"/><use xlink:href="#o" transform="matrix(1,0,0,1,489.16284533360437,530.6883929465416) translate(0 14.222222222222223)"/><path d="M357.5 421.03H226c-3.3 0-6 2.68-6 6v37.73c0 3.3 2.7 6 6 6h130.67" stroke="#5e5e5e" stroke-width="2" fill="none"/><path d="M358.5 421v1.03h-1.03v-2h1.06z" fill="#5e5e5e"/><path d="M371.93 470.76l-14.26 4.64v-9.27z" stroke="#5e5e5e" stroke-width="2" fill="#5e5e5e"/><use xlink:href="#G" transform="matrix(1,0,0,1,153.82716049382717,432.89518826307886) translate(0 14.222222222222223)"/><use xlink:href="#H" transform="matrix(1,0,0,1,153.82716049382717,432.89518826307886) translate(0 35.55555555555556)"/><path d="M975.04 659.04V977.8c0 3.32-2.68 6-6 6H662.06" stroke="#5e5e5e" stroke-width="2" fill="none"/><path d="M975.02 658.04l1.02-.04v1.06h-2v-1.08z" fill="#5e5e5e"/><path d="M646.8 983.8l14.26-4.63v9.27z" stroke="#5e5e5e" stroke-width="2" fill="#5e5e5e"/><path d="M975.04 180.96v-33c0-3.3-2.68-6-6-6H796c-3.3 0-6 2.7-6 6V977.8c0 3.32-2.7 6-6 6H662.06" stroke="#5e5e5e" stroke-width="2" fill="none"/><path d="M976.04 182.02l-.98-.06-1.02.04v-1.06h2z" fill="#5e5e5e"/><path d="M646.8 983.8l14.26-4.63v9.27z" stroke="#5e5e5e" stroke-width="2" fill="#5e5e5e"/><path d="M1368.03 182.46v-33c0-3.3-2.68-6-6-6H1186c-3.3 0-6 2.7-6 6V977.8c0 3.32-2.7 6-6 6H662.06" stroke="#5e5e5e" stroke-width="2" fill="none"/><path d="M1369.03 183.52l-.98-.06-1.02.04v-1.06h2z" fill="#5e5e5e"/><path d="M646.8 983.8l14.26-4.63v9.27z" stroke="#5e5e5e" stroke-width="2" fill="#5e5e5e"/><path d="M1368.03 660.54V977.8c0 3.32-2.68 6-6 6H662.06" stroke="#5e5e5e" stroke-width="2" fill="none"/><path d="M1368 659.54l1.03-.04v1.07h-2v-1.1z" fill="#5e5e5e"/><path d="M646.8 983.8l14.26-4.63v9.27z" stroke="#5e5e5e" stroke-width="2" fill="#5e5e5e"/><use xlink:href="#y" transform="matrix(1,0,0,1,731.3346245405352,958.4685605243901) translate(0 14.222222222222223)"/><path d="M975.04 180.96v-33c0-3.3-2.68-6-6-6H796c-3.3 0-6 2.7-6 6V777.8c0 3.32-2.7 6-6 6H662.06" stroke="#5e5e5e" stroke-width="2" fill="none"/><path d="M976.04 182.02l-.98-.06-1.02.04v-1.06h2z" fill="#5e5e5e"/><path d="M646.8 783.8l14.26-4.63v9.27z" stroke="#5e5e5e" stroke-width="2" fill="#5e5e5e"/><path d="M1368.03 182.46v-33c0-3.3-2.68-6-6-6H1186c-3.3 0-6 2.7-6 6V777.8c0 3.32-2.7 6-6 6H662.06" stroke="#5e5e5e" stroke-width="2" fill="none"/><path d="M1369.03 183.52l-.98-.06-1.02.04v-1.06h2z" fill="#5e5e5e"/><path d="M646.8 783.8l14.26-4.63v9.27z" stroke="#5e5e5e" stroke-width="2" fill="#5e5e5e"/><path d="M975.04 659.04V777.8c0 3.32-2.68 6-6 6H662.06" stroke="#5e5e5e" stroke-width="2" fill="none"/><path d="M975.02 658.04l1.02-.04v1.06h-2v-1.08z" fill="#5e5e5e"/><path d="M646.8 783.8l14.26-4.63v9.27z" stroke="#5e5e5e" stroke-width="2" fill="#5e5e5e"/><path d="M1368.03 660.54V777.8c0 3.32-2.68 6-6 6H662.06" stroke="#5e5e5e" stroke-width="2" fill="none"/><path d="M1368 659.54l1.03-.04v1.07h-2v-1.1z" fill="#5e5e5e"/><path d="M646.8 783.8l14.26-4.63v9.27z" stroke="#5e5e5e" stroke-width="2" fill="#5e5e5e"/><use xlink:href="#w" transform="matrix(1,0,0,1,723.5352395566283,758.4685605243901) translate(0 14.222222222222223)"/><path d="M975.04 180.96v-33c0-3.3-2.68-6-6-6H796c-3.3 0-6 2.7-6 6V1177.8c0 3.32-2.7 6-6 6H662.06" stroke="#5e5e5e" stroke-width="2" fill="none"/><path d="M976.04 182.02l-.98-.06-1.02.04v-1.06h2z" fill="#5e5e5e"/><path d="M646.8 1183.8l14.26-4.63v9.27z" stroke="#5e5e5e" stroke-width="2" fill="#5e5e5e"/><path d="M975.04 659.04v518.76c0 3.32-2.68 6-6 6H662.06" stroke="#5e5e5e" stroke-width="2" fill="none"/><path d="M975.02 658.04l1.02-.04v1.06h-2v-1.08z" fill="#5e5e5e"/><path d="M646.8 1183.8l14.26-4.63v9.27z" stroke="#5e5e5e" stroke-width="2" fill="#5e5e5e"/><path d="M1368.03 182.46v-33c0-3.3-2.68-6-6-6H1186c-3.3 0-6 2.7-6 6V1177.8c0 3.32-2.7 6-6 6H662.06" stroke="#5e5e5e" stroke-width="2" fill="none"/><path d="M1369.03 183.52l-.98-.06-1.02.04v-1.06h2z" fill="#5e5e5e"/><path d="M646.8 1183.8l14.26-4.63v9.27z" stroke="#5e5e5e" stroke-width="2" fill="#5e5e5e"/><path d="M1368.03 660.54v517.26c0 3.32-2.68 6-6 6H662.06" stroke="#5e5e5e" stroke-width="2" fill="none"/><path d="M1368 659.54l1.03-.04v1.07h-2v-1.1z" fill="#5e5e5e"/><path d="M646.8 1183.8l14.26-4.63v9.27z" stroke="#5e5e5e" stroke-width="2" fill="#5e5e5e"/><use xlink:href="#A" transform="matrix(1,0,0,1,730.2909734229047,1158.4685605243899) translate(0 14.222222222222223)"/><path d="M975.04 180.96v-33c0-3.3-2.68-6-6-6H796c-3.3 0-6 2.7-6 6V859.3c0 3.32-2.7 6-6 6H286c-3.3 0-6-2.68-6-6v-15.5" stroke="#5e5e5e" stroke-width="2" fill="none"/><path d="M976.04 182.02l-.98-.06-1.02.04v-1.06h2z" fill="#5e5e5e"/><path d="M280 828.54l4.64 14.26h-9.28z" stroke="#5e5e5e" stroke-width="2" fill="#5e5e5e"/><path d="M975.04 659.04V859.3c0 3.32-2.68 6-6 6H286c-3.3 0-6-2.68-6-6v-15.5" stroke="#5e5e5e" stroke-width="2" fill="none"/><path d="M975.02 658.04l1.02-.04v1.06h-2v-1.08z" fill="#5e5e5e"/><path d="M280 828.54l4.64 14.26h-9.28z" stroke="#5e5e5e" stroke-width="2" fill="#5e5e5e"/><path d="M1368.03 182.46v-33c0-3.3-2.68-6-6-6H1186c-3.3 0-6 2.7-6 6V859.3c0 3.32-2.7 6-6 6H286c-3.3 0-6-2.68-6-6v-15.5" stroke="#5e5e5e" stroke-width="2" fill="none"/><path d="M1369.03 183.52l-.98-.06-1.02.04v-1.06h2z" fill="#5e5e5e"/><path d="M280 828.54l4.64 14.26h-9.28z" stroke="#5e5e5e" stroke-width="2" fill="#5e5e5e"/><path d="M1368.03 660.54V859.3c0 3.32-2.68 6-6 6H286c-3.3 0-6-2.68-6-6v-15.5" stroke="#5e5e5e" stroke-width="2" fill="none"/><path d="M1368 659.54l1.03-.04v1.07h-2v-1.1z" fill="#5e5e5e"/><path d="M280 828.54l4.64 14.26h-9.28z" stroke="#5e5e5e" stroke-width="2" fill="#5e5e5e"/><use xlink:href="#x" transform="matrix(1,0,0,1,727.70984402715,839.9694961039226) translate(0 14.222222222222223)"/><path d="M975.04 180.96v-33c0-3.3-2.68-6-6-6H796c-3.3 0-6 2.7-6 6v911.34c0 3.32-2.7 6-6 6H286c-3.3 0-6-2.68-6-6v-15.5" stroke="#5e5e5e" stroke-width="2" fill="none"/><path d="M976.04 182.02l-.98-.06-1.02.04v-1.06h2z" fill="#5e5e5e"/><path d="M280 1028.54l4.64 14.26h-9.28z" stroke="#5e5e5e" stroke-width="2" fill="#5e5e5e"/><path d="M975.04 659.04v400.26c0 3.32-2.68 6-6 6H286c-3.3 0-6-2.68-6-6v-15.5" stroke="#5e5e5e" stroke-width="2" fill="none"/><path d="M975.02 658.04l1.02-.04v1.06h-2v-1.08z" fill="#5e5e5e"/><path d="M280 1028.54l4.64 14.26h-9.28z" stroke="#5e5e5e" stroke-width="2" fill="#5e5e5e"/><path d="M1368.03 182.46v-33c0-3.3-2.68-6-6-6H1186c-3.3 0-6 2.7-6 6v909.84c0 3.32-2.7 6-6 6H286c-3.3 0-6-2.68-6-6v-15.5" stroke="#5e5e5e" stroke-width="2" fill="none"/><path d="M1369.03 183.52l-.98-.06-1.02.04v-1.06h2z" fill="#5e5e5e"/><path d="M280 1028.54l4.64 14.26h-9.28z" stroke="#5e5e5e" stroke-width="2" fill="#5e5e5e"/><path d="M1368.03 660.54v398.76c0 3.32-2.68 6-6 6H286c-3.3 0-6-2.68-6-6v-15.5" stroke="#5e5e5e" stroke-width="2" fill="none"/><path d="M1368 659.54l1.03-.04v1.07h-2v-1.1z" fill="#5e5e5e"/><path d="M280 1028.54l4.64 14.26h-9.28z" stroke="#5e5e5e" stroke-width="2" fill="#5e5e5e"/><use xlink:href="#z" transform="matrix(1,0,0,1,733.9717507329324,1039.9694961039227) translate(0 14.222222222222223)"/><path d="M975.04 180.96v-33c0-3.3-2.68-6-6-6H796c-3.3 0-6 2.7-6 6V1259.3c0 3.32-2.7 6-6 6H286c-3.3 0-6-2.68-6-6v-15.5" stroke="#5e5e5e" stroke-width="2" fill="none"/><path d="M976.04 182.02l-.98-.06-1.02.04v-1.06h2z" fill="#5e5e5e"/><path d="M280 1228.54l4.64 14.26h-9.28z" stroke="#5e5e5e" stroke-width="2" fill="#5e5e5e"/><path d="M975.04 659.04v600.26c0 3.32-2.68 6-6 6H286c-3.3 0-6-2.68-6-6v-15.5" stroke="#5e5e5e" stroke-width="2" fill="none"/><path d="M975.02 658.04l1.02-.04v1.06h-2v-1.08z" fill="#5e5e5e"/><path d="M280 1228.54l4.64 14.26h-9.28z" stroke="#5e5e5e" stroke-width="2" fill="#5e5e5e"/><path d="M1368.03 182.46v-33c0-3.3-2.68-6-6-6H1186c-3.3 0-6 2.7-6 6V1259.3c0 3.32-2.7 6-6 6H286c-3.3 0-6-2.68-6-6v-15.5" stroke="#5e5e5e" stroke-width="2" fill="none"/><path d="M1369.03 183.52l-.98-.06-1.02.04v-1.06h2z" fill="#5e5e5e"/><path d="M280 1228.54l4.64 14.26h-9.28z" stroke="#5e5e5e" stroke-width="2" fill="#5e5e5e"/><path d="M1368.03 660.54v598.76c0 3.32-2.68 6-6 6H286c-3.3 0-6-2.68-6-6v-15.5" stroke="#5e5e5e" stroke-width="2" fill="none"/><path d="M1368 659.54l1.03-.04v1.07h-2v-1.1z" fill="#5e5e5e"/><path d="M280 1228.54l4.64 14.26h-9.28z" stroke="#5e5e5e" stroke-width="2" fill="#5e5e5e"/><use xlink:href="#B" transform="matrix(1,0,0,1,734.4655778934264,1239.969496103923) translate(0 14.222222222222223)"/><path d="M962.18 183v-7c0-3.3-2.7-6-6-6H816c-3.3 0-6 2.7-6 6v28.5c0 3.3 2.7 6 6 6h101.2" stroke="#5e5e5e" stroke-width="2" fill="none"/><path d="M963.18 183.74l-1.23.33-.77.3v-1.4h2z" fill="#5e5e5e"/><path d="M932.46 210.5l-14.27 4.63v-9.27z" stroke="#5e5e5e" stroke-width="2" fill="#5e5e5e"/><use xlink:href="#k" transform="matrix(1,0,0,1,872.9178049477413,185.16071758181613) translate(0 14.222222222222223)"/><path d="M960.88 656.5V674c0 3.3-2.7 6-6 6H816c-3.3 0-6-2.7-6-6v-37.3c0-3.3 2.7-6 6-6h101.58" stroke="#5e5e5e" stroke-width="2" fill="none"/><path d="M961.88 655.83v.7h-2v-1.35z" fill="#5e5e5e"/><path d="M932.85 630.7l-14.27 4.64v-9.27z" stroke="#5e5e5e" stroke-width="2" fill="#5e5e5e"/><use xlink:href="#l" transform="matrix(1,0,0,1,878.3382152775529,654.6666666666667) translate(0 14.222222222222223)"/><path d="M1349.94 186.62V176c0-3.3-2.68-6-6-6H1206c-3.3 0-6 2.7-6 6v24.74c0 3.32 2.7 6 6 6h106.3" stroke="#5e5e5e" stroke-width="2" fill="none"/><path d="M1350.94 187.18l-.78.32-1.22.67v-1.58h2z" fill="#5e5e5e"/><path d="M1327.58 206.74l-14.27 4.64v-9.27z" stroke="#5e5e5e" stroke-width="2" fill="#5e5e5e"/><use xlink:href="#m" transform="matrix(1,0,0,1,1259.7693035135944,181.40966136065222) translate(0 14.222222222222223)"/><path d="M1347.86 655.3V684c0 3.3-2.68 6-6 6H1216c-3.3 0-6-2.7-6-6v-39.63c0-3.32 2.7-6 6-6h97.43" stroke="#5e5e5e" stroke-width="2" fill="none"/><path d="M1348.16 654.48l.7.33v.52h-2v-1.66z" fill="#5e5e5e"/><path d="M1328.7 638.37l-14.27 4.63v-9.27z" stroke="#5e5e5e" stroke-width="2" fill="#5e5e5e"/><use xlink:href="#n" transform="matrix(1,0,0,1,1277.2118861098243,664.6666666666666) translate(0 14.222222222222223)"/><path d="M566.62 806.9h-33c-3.32 0-6 2.68-6 6v28c0 3.3 2.68 6 6 6h136.85c3.3 0 6-2.7 6-6v-28c0-3.32-2.7-6-6-6h-15.5" stroke="#5e5e5e" stroke-width="2" fill="none"/><path d="M567.1 806.2l1.25 1.7h-1.76v-2h.34z" fill="#5e5e5e"/><path d="M639.7 806.9l14.27-4.64v9.27z" stroke="#5e5e5e" stroke-width="2" fill="#5e5e5e"/><use xlink:href="#w" transform="matrix(1,0,0,1,535.6179553872375,821.5621998763237) translate(0 14.222222222222223)"/><path d="M635.98 1008.97h33c3.3 0 6 2.7 6 6v28c0 3.32-2.7 6-6 6H535.14c-3.3 0-6-2.68-6-6v-28c0-3.3 2.7-6 6-6h15.5" stroke="#5e5e5e" stroke-width="2" fill="none"/><path d="M636 1009.97h-1.84l1.57-1.9.06-.1h.2z" fill="#5e5e5e"/><path d="M565.9 1008.97l-14.26 4.64v-9.26z" stroke="#5e5e5e" stroke-width="2" fill="#5e5e5e"/><use xlink:href="#y" transform="matrix(1,0,0,1,542.2472661327014,1023.6413640652871) translate(0 14.222222222222223)"/><path d="M638.62 1205.07h33c3.3 0 6 2.7 6 6v28c0 3.32-2.7 6-6 6H532.48c-3.32 0-6-2.68-6-6v-28c0-3.3 2.68-6 6-6h15.5" stroke="#5e5e5e" stroke-width="2" fill="none"/><path d="M638.64 1206.07H637l1.25-2h.4z" fill="#5e5e5e"/><path d="M563.24 1205.07l-14.26 4.64v-9.26z" stroke="#5e5e5e" stroke-width="2" fill="#5e5e5e"/><use xlink:href="#A" transform="matrix(1,0,0,1,543.8148443722099,1219.7394312503857) translate(0 14.222222222222223)"/><path d="M252.78 1216.05v33c0 3.3-2.68 6-6 6H196c-3.3 0-6-2.7-6-6v-130.52c0-3.3 2.7-6 6-6h50.78c3.32 0 6 2.7 6 6v15.5" stroke="#5e5e5e" stroke-width="2" fill="none"/><path d="M253.78 1215.87v.2h-2v-1.84z" fill="#5e5e5e"/><path d="M252.78 1149.3l-4.63-14.27h9.27z" stroke="#5e5e5e" stroke-width="2" fill="#5e5e5e"/><g><use xlink:href="#B" transform="matrix(1,0,0,1,143.48148148148147,1173.123182493601) translate(0 14.222222222222223)"/></g><path d="M256.32 1018.85v33c0 3.3-2.68 6-6 6H196c-3.3 0-6-2.7-6-6V915.8c0-3.32 2.7-6 6-6h54.32c3.32 0 6 2.68 6 6v15.5" stroke="#5e5e5e" stroke-width="2" fill="none"/><path d="M255.74 1017.48l1.58 1v.4h-2v-1.74z" fill="#5e5e5e"/><path d="M256.32 946.56l-4.63-14.27h9.26z" stroke="#5e5e5e" stroke-width="2" fill="#5e5e5e"/><g><use xlink:href="#z" transform="matrix(1,0,0,1,142.49382716049382,973.1545373542932) translate(0 14.222222222222223)"/></g><path d="M254.02 817.06v33c0 3.32-2.7 6-6 6H196c-3.3 0-6-2.68-6-6V717.5c0-3.33 2.7-6 6-6h52.02c3.3 0 6 2.67 6 6V733" stroke="#5e5e5e" stroke-width="2" fill="none"/><path d="M255.02 816.9v.2h-2v-1.86z" fill="#5e5e5e"/><path d="M254.02 748.25L249.38 734h9.27z" stroke="#5e5e5e" stroke-width="2" fill="#5e5e5e"/><g><use xlink:href="#x" transform="matrix(1,0,0,1,142.49382716049382,773.1097581002797) translate(0 14.222222222222223)"/></g><defs><path fill="#333" d="M233-177c-1 41-23 64-60 70L243 0h-38l-65-103H63V0H30v-248c88 3 205-21 203 71zM63-129c60-2 137 13 137-47 0-61-80-42-137-45v92" id="I"/><path fill="#333" d="M30 0v-248h187v28H63v79h144v27H63v87h162V0H30" id="J"/><path fill="#333" d="M205 0l-28-72H64L36 0H1l101-248h38L239 0h-34zm-38-99l-47-123c-12 45-31 82-46 123h93" id="K"/><path fill="#333" d="M30-248c118-7 216 8 213 122C240-48 200 0 122 0H30v-248zM63-27c89 8 146-16 146-99s-60-101-146-95v194" id="L"/><path fill="#333" d="M137-103V0h-34v-103L8-248h37l75 118 75-118h37" id="M"/><g id="a"><use transform="matrix(0.06172839506172839,0,0,0.06172839506172839,0,0)" xlink:href="#I"/><use transform="matrix(0.06172839506172839,0,0,0.06172839506172839,15.987654320987653,0)" xlink:href="#J"/><use transform="matrix(0.06172839506172839,0,0,0.06172839506172839,30.80246913580247,0)" xlink:href="#K"/><use transform="matrix(0.06172839506172839,0,0,0.06172839506172839,45.61728395061728,0)" xlink:href="#L"/><use transform="matrix(0.06172839506172839,0,0,0.06172839506172839,61.60493827160493,0)" xlink:href="#M"/></g><path fill="#333" d="M240-174c0 40-23 61-54 70L253 0h-59l-57-94H76V0H24v-248c93 4 217-23 216 74zM76-134c48-2 112 12 112-38 0-48-66-32-112-35v73" id="N"/><path fill="#333" d="M24 0v-248h195v40H76v63h132v40H76v65h150V0H24" id="O"/><path fill="#333" d="M169-182c-1-43-94-46-97-3 18 66 151 10 154 114 3 95-165 93-204 36-6-8-10-19-12-30l50-8c3 46 112 56 116 5-17-69-150-10-154-114-4-87 153-88 188-35 5 8 8 18 10 28" id="P"/><path fill="#333" d="M136-208V0H84v-208H4v-40h212v40h-80" id="Q"/><g id="b"><use transform="matrix(0.04938271604938272,0,0,0.04938271604938272,0,0)" xlink:href="#N"/><use transform="matrix(0.04938271604938272,0,0,0.04938271604938272,12.790123456790125,0)" xlink:href="#O"/><use transform="matrix(0.04938271604938272,0,0,0.04938271604938272,24.641975308641978,0)" xlink:href="#P"/><use transform="matrix(0.04938271604938272,0,0,0.04938271604938272,36.49382716049383,0)" xlink:href="#O"/><use transform="matrix(0.04938271604938272,0,0,0.04938271604938272,48.345679012345684,0)" xlink:href="#Q"/></g><path fill="#333" d="M24-248c93 1 206-16 204 79-1 75-69 88-152 82V0H24v-248zm52 121c47 0 100 7 100-41 0-47-54-39-100-39v80" id="R"/><g id="c"><use transform="matrix(0.04938271604938272,0,0,0.04938271604938272,0,0)" xlink:href="#R"/><use transform="matrix(0.04938271604938272,0,0,0.04938271604938272,11.851851851851853,0)" xlink:href="#N"/><use transform="matrix(0.04938271604938272,0,0,0.04938271604938272,24.641975308641978,0)" xlink:href="#O"/><use transform="matrix(0.04938271604938272,0,0,0.04938271604938272,36.49382716049383,0)" xlink:href="#P"/><use transform="matrix(0.04938271604938272,0,0,0.04938271604938272,48.345679012345684,0)" xlink:href="#O"/><use transform="matrix(0.04938271604938272,0,0,0.04938271604938272,60.19753086419754,0)" xlink:href="#Q"/></g><path fill="#333" d="M101-251c68 0 84 54 84 127C185-50 166 4 99 4S15-52 14-124c-1-75 17-127 87-127zm-1 216c37-5 36-46 36-89s4-89-36-89c-39 0-36 45-36 89 0 43-3 85 36 89" id="S"/><path fill="#333" d="M23 0v-37h61v-169l-59 37v-38l62-41h46v211h57V0H23" id="T"/><g id="e"><use transform="matrix(0.04938271604938272,0,0,0.04938271604938272,0,0)" xlink:href="#S"/><use transform="matrix(0.04938271604938272,0,0,0.04938271604938272,9.876543209876544,0)" xlink:href="#S"/><use transform="matrix(0.04938271604938272,0,0,0.04938271604938272,19.75308641975309,0)" xlink:href="#T"/><use transform="matrix(0.04938271604938272,0,0,0.04938271604938272,29.629629629629633,0)" xlink:href="#S"/></g><g id="f"><use transform="matrix(0.04938271604938272,0,0,0.04938271604938272,0,0)" xlink:href="#S"/><use transform="matrix(0.04938271604938272,0,0,0.04938271604938272,9.876543209876544,0)" xlink:href="#S"/><use transform="matrix(0.04938271604938272,0,0,0.04938271604938272,19.75308641975309,0)" xlink:href="#T"/><use transform="matrix(0.04938271604938272,0,0,0.04938271604938272,28.641975308641978,0)" xlink:href="#T"/></g><path fill="#333" d="M85-194c31 0 48 13 60 33l-1-100h32l1 261h-30c-2-10 0-23-3-31C134-8 116 4 85 4 32 4 16-35 15-94c0-66 23-100 70-100zm9 24c-40 0-46 34-46 75 0 40 6 74 45 74 42 0 51-32 51-76 0-42-9-74-50-73" id="U"/><g id="g"><use transform="matrix(0.06172839506172839,0,0,0.06172839506172839,0,0)" xlink:href="#K"/><use transform="matrix(0.06172839506172839,0,0,0.06172839506172839,14.814814814814813,0)" xlink:href="#U"/><use transform="matrix(0.06172839506172839,0,0,0.06172839506172839,27.160493827160494,0)" xlink:href="#U"/></g><path fill="#333" d="M185-189c-5-48-123-54-124 2 14 75 158 14 163 119 3 78-121 87-175 55-17-10-28-26-33-46l33-7c5 56 141 63 141-1 0-78-155-14-162-118-5-82 145-84 179-34 5 7 8 16 11 25" id="V"/><path fill="#333" d="M84 4C-5 8 30-112 23-190h32v120c0 31 7 50 39 49 72-2 45-101 50-169h31l1 190h-30c-1-10 1-25-2-33-11 22-28 36-60 37" id="W"/><path fill="#333" d="M115-194c53 0 69 39 70 98 0 66-23 100-70 100C84 3 66-7 56-30L54 0H23l1-261h32v101c10-23 28-34 59-34zm-8 174c40 0 45-34 45-75 0-40-5-75-45-74-42 0-51 32-51 76 0 43 10 73 51 73" id="X"/><path fill="#333" d="M59-47c-2 24 18 29 38 22v24C64 9 27 4 27-40v-127H5v-23h24l9-43h21v43h35v23H59v120" id="Y"/><path fill="#333" d="M114-163C36-179 61-72 57 0H25l-1-190h30c1 12-1 29 2 39 6-27 23-49 58-41v29" id="Z"/><path fill="#333" d="M141-36C126-15 110 5 73 4 37 3 15-17 15-53c-1-64 63-63 125-63 3-35-9-54-41-54-24 1-41 7-42 31l-33-3c5-37 33-52 76-52 45 0 72 20 72 64v82c-1 20 7 32 28 27v20c-31 9-61-2-59-35zM48-53c0 20 12 33 32 33 41-3 63-29 60-74-43 2-92-5-92 41" id="aa"/><path fill="#333" d="M96-169c-40 0-48 33-48 73s9 75 48 75c24 0 41-14 43-38l32 2c-6 37-31 61-74 61-59 0-76-41-82-99-10-93 101-131 147-64 4 7 5 14 7 22l-32 3c-4-21-16-35-41-35" id="ab"/><g id="h"><use transform="matrix(0.05555555555555554,0,0,0.05555555555555554,0,0)" xlink:href="#V"/><use transform="matrix(0.05555555555555554,0,0,0.05555555555555554,13.333333333333329,0)" xlink:href="#W"/><use transform="matrix(0.05555555555555554,0,0,0.05555555555555554,24.444444444444436,0)" xlink:href="#X"/><use transform="matrix(0.05555555555555554,0,0,0.05555555555555554,35.55555555555554,0)" xlink:href="#Y"/><use transform="matrix(0.05555555555555554,0,0,0.05555555555555554,41.1111111111111,0)" xlink:href="#Z"/><use transform="matrix(0.05555555555555554,0,0,0.05555555555555554,47.72222222222221,0)" xlink:href="#aa"/><use transform="matrix(0.05555555555555554,0,0,0.05555555555555554,58.833333333333314,0)" xlink:href="#ab"/><use transform="matrix(0.05555555555555554,0,0,0.05555555555555554,68.83333333333331,0)" xlink:href="#Y"/></g><path fill="#333" d="M240 0l2-218c-23 76-54 145-80 218h-23L58-218 59 0H30v-248h44l77 211c21-75 51-140 76-211h43V0h-30" id="ac"/><path fill="#333" d="M24 0v-261h32V0H24" id="ad"/><path fill="#333" d="M24-231v-30h32v30H24zM24 0v-190h32V0H24" id="ae"/><path fill="#333" d="M115-194c55 1 70 41 70 98S169 2 115 4C84 4 66-9 55-30l1 105H24l-1-265h31l2 30c10-21 28-34 59-34zm-8 174c40 0 45-34 45-75s-6-73-45-74c-42 0-51 32-51 76 0 43 10 73 51 73" id="af"/><path fill="#333" d="M179-190L93 31C79 59 56 82 12 73V49c39 6 53-20 64-50L1-190h34L92-34l54-156h33" id="ag"/><g id="i"><use transform="matrix(0.06172839506172839,0,0,0.06172839506172839,0,0)" xlink:href="#ac"/><use transform="matrix(0.06172839506172839,0,0,0.06172839506172839,18.456790123456788,0)" xlink:href="#W"/><use transform="matrix(0.06172839506172839,0,0,0.06172839506172839,30.80246913580247,0)" xlink:href="#ad"/><use transform="matrix(0.06172839506172839,0,0,0.06172839506172839,35.67901234567901,0)" xlink:href="#Y"/><use transform="matrix(0.06172839506172839,0,0,0.06172839506172839,41.851851851851855,0)" xlink:href="#ae"/><use transform="matrix(0.06172839506172839,0,0,0.06172839506172839,46.7283950617284,0)" xlink:href="#af"/><use transform="matrix(0.06172839506172839,0,0,0.06172839506172839,59.074074074074076,0)" xlink:href="#ad"/><use transform="matrix(0.06172839506172839,0,0,0.06172839506172839,63.95061728395061,0)" xlink:href="#ag"/></g><path fill="#333" d="M108 0H70L1-190h34L89-25l56-165h34" id="ah"/><path fill="#333" d="M100-194c63 0 86 42 84 106H49c0 40 14 67 53 68 26 1 43-12 49-29l28 8c-11 28-37 45-77 45C44 4 14-33 15-96c1-61 26-98 85-98zm52 81c6-60-76-77-97-28-3 7-6 17-6 28h103" id="ai"/><g id="j"><use transform="matrix(0.06172839506172839,0,0,0.06172839506172839,0,0)" xlink:href="#L"/><use transform="matrix(0.06172839506172839,0,0,0.06172839506172839,15.987654320987653,0)" xlink:href="#ae"/><use transform="matrix(0.06172839506172839,0,0,0.06172839506172839,20.864197530864196,0)" xlink:href="#ah"/><use transform="matrix(0.06172839506172839,0,0,0.06172839506172839,31.975308641975307,0)" xlink:href="#ae"/><use transform="matrix(0.06172839506172839,0,0,0.06172839506172839,36.85185185185185,0)" xlink:href="#U"/><use transform="matrix(0.06172839506172839,0,0,0.06172839506172839,49.197530864197525,0)" xlink:href="#ai"/></g><g id="k"><use transform="matrix(0.04938271604938272,0,0,0.04938271604938272,0,0)" xlink:href="#S"/><use transform="matrix(0.04938271604938272,0,0,0.04938271604938272,9.876543209876544,0)" xlink:href="#T"/><use transform="matrix(0.04938271604938272,0,0,0.04938271604938272,19.75308641975309,0)" xlink:href="#S"/><use transform="matrix(0.04938271604938272,0,0,0.04938271604938272,29.629629629629633,0)" xlink:href="#S"/></g><g id="l"><use transform="matrix(0.04938271604938272,0,0,0.04938271604938272,0,0)" xlink:href="#S"/><use transform="matrix(0.04938271604938272,0,0,0.04938271604938272,9.876543209876544,0)" xlink:href="#T"/><use transform="matrix(0.04938271604938272,0,0,0.04938271604938272,18.765432098765434,0)" xlink:href="#T"/><use transform="matrix(0.04938271604938272,0,0,0.04938271604938272,28.641975308641978,0)" xlink:href="#S"/></g><g id="m"><use transform="matrix(0.04938271604938272,0,0,0.04938271604938272,0,0)" xlink:href="#S"/><use transform="matrix(0.04938271604938272,0,0,0.04938271604938272,9.876543209876544,0)" xlink:href="#T"/><use transform="matrix(0.04938271604938272,0,0,0.04938271604938272,19.75308641975309,0)" xlink:href="#S"/><use transform="matrix(0.04938271604938272,0,0,0.04938271604938272,29.629629629629633,0)" xlink:href="#T"/></g><g id="n"><use transform="matrix(0.04938271604938272,0,0,0.04938271604938272,0,0)" xlink:href="#S"/><use transform="matrix(0.04938271604938272,0,0,0.04938271604938272,9.876543209876544,0)" xlink:href="#T"/><use transform="matrix(0.04938271604938272,0,0,0.04938271604938272,18.765432098765434,0)" xlink:href="#T"/><use transform="matrix(0.04938271604938272,0,0,0.04938271604938272,27.654320987654323,0)" xlink:href="#T"/></g><path fill="#333" d="M24-248c120-7 223 5 221 122C244-46 201 0 124 0H24v-248zM76-40c74 7 117-18 117-86 0-67-45-88-117-82v168" id="aj"/><path fill="#333" d="M140-251c80 0 125 45 125 126S219 4 139 4C58 4 15-44 15-125s44-126 125-126zm-1 214c52 0 73-35 73-88 0-50-21-86-72-86-52 0-73 35-73 86s22 88 72 88" id="ak"/><path fill="#333" d="M175 0L67-191c6 58 2 128 3 191H24v-248h59L193-55c-6-58-2-129-3-193h46V0h-61" id="al"/><g id="o"><use transform="matrix(0.04938271604938272,0,0,0.04938271604938272,0,0)" xlink:href="#aj"/><use transform="matrix(0.04938271604938272,0,0,0.04938271604938272,12.790123456790125,0)" xlink:href="#ak"/><use transform="matrix(0.04938271604938272,0,0,0.04938271604938272,26.617283950617285,0)" xlink:href="#al"/><use transform="matrix(0.04938271604938272,0,0,0.04938271604938272,39.40740740740741,0)" xlink:href="#O"/></g><path fill="#333" d="M140-251c81 0 123 46 123 126C263-46 219 4 140 4 59 4 17-45 17-125s42-126 123-126zm0 227c63 0 89-41 89-101s-29-99-89-99c-61 0-89 39-89 99S79-25 140-24" id="am"/><g id="p"><use transform="matrix(0.055555555555555546,0,0,0.055555555555555546,0,0)" xlink:href="#J"/><use transform="matrix(0.055555555555555546,0,0,0.055555555555555546,13.33333333333333,0)" xlink:href="#I"/><use transform="matrix(0.055555555555555546,0,0,0.055555555555555546,27.722222222222214,0)" xlink:href="#I"/><use transform="matrix(0.055555555555555546,0,0,0.055555555555555546,42.1111111111111,0)" xlink:href="#am"/><use transform="matrix(0.055555555555555546,0,0,0.055555555555555546,57.66666666666666,0)" xlink:href="#I"/></g><path fill="#333" d="M190 0L58-211 59 0H30v-248h39L202-35l-2-213h31V0h-41" id="an"/><g id="q"><use transform="matrix(0.06172839506172839,0,0,0.06172839506172839,0,0)" xlink:href="#K"/><use transform="matrix(0.06172839506172839,0,0,0.06172839506172839,14.814814814814813,0)" xlink:href="#an"/><use transform="matrix(0.06172839506172839,0,0,0.06172839506172839,30.80246913580247,0)" xlink:href="#L"/></g><g id="r"><use transform="matrix(0.06172839506172839,0,0,0.06172839506172839,0,0)" xlink:href="#an"/><use transform="matrix(0.06172839506172839,0,0,0.06172839506172839,15.987654320987653,0)" xlink:href="#K"/><use transform="matrix(0.06172839506172839,0,0,0.06172839506172839,30.80246913580247,0)" xlink:href="#an"/><use transform="matrix(0.06172839506172839,0,0,0.06172839506172839,46.79012345679012,0)" xlink:href="#L"/></g><g id="s"><use transform="matrix(0.06172839506172839,0,0,0.06172839506172839,0,0)" xlink:href="#am"/><use transform="matrix(0.06172839506172839,0,0,0.06172839506172839,17.28395061728395,0)" xlink:href="#I"/></g><g id="t"><use transform="matrix(0.06172839506172839,0,0,0.06172839506172839,0,0)" xlink:href="#an"/><use transform="matrix(0.06172839506172839,0,0,0.06172839506172839,15.987654320987653,0)" xlink:href="#am"/><use transform="matrix(0.06172839506172839,0,0,0.06172839506172839,33.2716049382716,0)" xlink:href="#I"/></g><path fill="#333" d="M195 0l-74-108L45 0H8l94-129-87-119h37l69 98 67-98h37l-84 118L233 0h-38" id="ao"/><g id="u"><use transform="matrix(0.06172839506172839,0,0,0.06172839506172839,0,0)" xlink:href="#ao"/><use transform="matrix(0.06172839506172839,0,0,0.06172839506172839,14.814814814814813,0)" xlink:href="#am"/><use transform="matrix(0.06172839506172839,0,0,0.06172839506172839,32.09876543209876,0)" xlink:href="#I"/></g><g id="v"><use transform="matrix(0.06172839506172839,0,0,0.06172839506172839,0,0)" xlink:href="#ao"/><use transform="matrix(0.06172839506172839,0,0,0.06172839506172839,14.814814814814813,0)" xlink:href="#an"/><use transform="matrix(0.06172839506172839,0,0,0.06172839506172839,30.80246913580247,0)" xlink:href="#am"/><use transform="matrix(0.06172839506172839,0,0,0.06172839506172839,48.08641975308642,0)" xlink:href="#I"/></g><g id="w"><use transform="matrix(0.04938271604938272,0,0,0.04938271604938272,0,0)" xlink:href="#T"/><use transform="matrix(0.04938271604938272,0,0,0.04938271604938272,9.876543209876544,0)" xlink:href="#S"/><use transform="matrix(0.04938271604938272,0,0,0.04938271604938272,19.75308641975309,0)" xlink:href="#S"/><use transform="matrix(0.04938271604938272,0,0,0.04938271604938272,29.629629629629633,0)" xlink:href="#T"/></g><g id="x"><use transform="matrix(0.04938271604938272,0,0,0.04938271604938272,0,0)" xlink:href="#T"/><use transform="matrix(0.04938271604938272,0,0,0.04938271604938272,9.876543209876544,0)" xlink:href="#S"/><use transform="matrix(0.04938271604938272,0,0,0.04938271604938272,19.75308641975309,0)" xlink:href="#S"/><use transform="matrix(0.04938271604938272,0,0,0.04938271604938272,29.629629629629633,0)" xlink:href="#S"/></g><g id="y"><use transform="matrix(0.04938271604938272,0,0,0.04938271604938272,0,0)" xlink:href="#T"/><use transform="matrix(0.04938271604938272,0,0,0.04938271604938272,9.876543209876544,0)" xlink:href="#S"/><use transform="matrix(0.04938271604938272,0,0,0.04938271604938272,19.75308641975309,0)" xlink:href="#T"/><use transform="matrix(0.04938271604938272,0,0,0.04938271604938272,28.641975308641978,0)" xlink:href="#T"/></g><g id="z"><use transform="matrix(0.04938271604938272,0,0,0.04938271604938272,0,0)" xlink:href="#T"/><use transform="matrix(0.04938271604938272,0,0,0.04938271604938272,9.876543209876544,0)" xlink:href="#S"/><use transform="matrix(0.04938271604938272,0,0,0.04938271604938272,19.75308641975309,0)" xlink:href="#T"/><use transform="matrix(0.04938271604938272,0,0,0.04938271604938272,29.629629629629633,0)" xlink:href="#S"/></g><g id="A"><use transform="matrix(0.04938271604938272,0,0,0.04938271604938272,0,0)" xlink:href="#T"/><use transform="matrix(0.04938271604938272,0,0,0.04938271604938272,8.88888888888889,0)" xlink:href="#T"/><use transform="matrix(0.04938271604938272,0,0,0.04938271604938272,18.765432098765434,0)" xlink:href="#S"/><use transform="matrix(0.04938271604938272,0,0,0.04938271604938272,28.641975308641978,0)" xlink:href="#T"/></g><g id="B"><use transform="matrix(0.04938271604938272,0,0,0.04938271604938272,0,0)" xlink:href="#T"/><use transform="matrix(0.04938271604938272,0,0,0.04938271604938272,8.88888888888889,0)" xlink:href="#T"/><use transform="matrix(0.04938271604938272,0,0,0.04938271604938272,18.765432098765434,0)" xlink:href="#S"/><use transform="matrix(0.04938271604938272,0,0,0.04938271604938272,28.641975308641978,0)" xlink:href="#S"/></g><path fill="#333" d="M147 0H94L2-248h55l64 206c17-72 42-137 63-206h54" id="ap"/><path fill="#333" d="M76-208v77h127v40H76V0H24v-248h183v40H76" id="aq"/><path fill="#333" d="M24 0v-248h52v208h133V0H24" id="ar"/><path fill="#333" d="M275 0h-61l-44-196L126 0H64L0-248h53L97-49l45-199h58l43 199 44-199h52" id="as"/><g id="C"><use transform="matrix(0.04938271604938272,0,0,0.04938271604938272,0,0)" xlink:href="#ak"/><use transform="matrix(0.04938271604938272,0,0,0.04938271604938272,13.827160493827162,0)" xlink:href="#ap"/><use transform="matrix(0.04938271604938272,0,0,0.04938271604938272,25.679012345679016,0)" xlink:href="#O"/><use transform="matrix(0.04938271604938272,0,0,0.04938271604938272,37.53086419753087,0)" xlink:href="#N"/><use transform="matrix(0.04938271604938272,0,0,0.04938271604938272,50.320987654320994,0)" xlink:href="#aq"/><use transform="matrix(0.04938271604938272,0,0,0.04938271604938272,61.13580246913581,0)" xlink:href="#ar"/><use transform="matrix(0.04938271604938272,0,0,0.04938271604938272,71.95061728395062,0)" xlink:href="#ak"/><use transform="matrix(0.04938271604938272,0,0,0.04938271604938272,85.77777777777779,0)" xlink:href="#as"/></g><path fill="#333" d="M24 0v-248h52V0H24" id="at"/><g id="D"><use transform="matrix(0.04938271604938272,0,0,0.04938271604938272,0,0)" xlink:href="#aj"/><use transform="matrix(0.04938271604938272,0,0,0.04938271604938272,12.790123456790125,0)" xlink:href="#at"/><use transform="matrix(0.04938271604938272,0,0,0.04938271604938272,17.7283950617284,0)" xlink:href="#ap"/><use transform="matrix(0.04938271604938272,0,0,0.04938271604938272,29.580246913580254,0)" xlink:href="#at"/><use transform="matrix(0.04938271604938272,0,0,0.04938271604938272,34.518518518518526,0)" xlink:href="#aj"/><use transform="matrix(0.04938271604938272,0,0,0.04938271604938272,47.30864197530865,0)" xlink:href="#O"/></g><path fill="#333" d="M182-130c37 4 62 22 62 59C244 23 116-4 24 0v-248c84 5 203-23 205 63 0 31-19 50-47 55zM76-148c40-3 101 13 101-30 0-44-60-28-101-31v61zm0 110c48-3 116 14 116-37 0-48-69-32-116-35v72" id="au"/><path fill="#333" d="M146-102V0H94v-102L6-248h54l60 105 60-105h54" id="av"/><g id="E"><use transform="matrix(0.04938271604938272,0,0,0.04938271604938272,0,0)" xlink:href="#au"/><use transform="matrix(0.04938271604938272,0,0,0.04938271604938272,12.790123456790125,0)" xlink:href="#av"/></g><use transform="matrix(0.04938271604938272,0,0,0.04938271604938272,0,0)" xlink:href="#S" id="F"/><path fill="#333" d="M14-72v-43h91v43H14" id="aw"/><g id="G"><use transform="matrix(0.04938271604938272,0,0,0.04938271604938272,0,0)" xlink:href="#al"/><use transform="matrix(0.04938271604938272,0,0,0.04938271604938272,12.790123456790125,0)" xlink:href="#ak"/><use transform="matrix(0.04938271604938272,0,0,0.04938271604938272,26.617283950617285,0)" xlink:href="#aw"/><use transform="matrix(0.04938271604938272,0,0,0.04938271604938272,32.49382716049383,0)" xlink:href="#ak"/><use transform="matrix(0.04938271604938272,0,0,0.04938271604938272,46.32098765432099,0)" xlink:href="#R"/></g><g id="H"><use transform="matrix(0.04938271604938272,0,0,0.04938271604938272,0,0)" xlink:href="#S"/><use transform="matrix(0.04938271604938272,0,0,0.04938271604938272,9.876543209876544,0)" xlink:href="#S"/><use transform="matrix(0.04938271604938272,0,0,0.04938271604938272,19.75308641975309,0)" xlink:href="#S"/><use transform="matrix(0.04938271604938272,0,0,0.04938271604938272,29.629629629629633,0)" xlink:href="#S"/></g></defs></g></svg>