<svg xmlns="http://www.w3.org/2000/svg" xmlns:xlink="http://www.w3.org/1999/xlink" xmlns:lucid="lucid" width="4760" height="2840"><g transform="translate(860 1240)" lucid:page-tab-id="0_0"><path d="M-1000-1500h5000v3500h-5000z" fill="#fff"/><path d="M-142.03 1366c0-3.3 2.7-6 6-6h148c3.32 0 6 2.7 6 6v208c0 3.3-2.68 6-6 6h-148c-3.3 0-6-2.7-6-6z" stroke="#5e5e5e" stroke-width="3" fill="#fff"/><use xlink:href="#a" transform="matrix(1,0,0,1,-137.02869343849818,1365) translate(51.60493827160494 96.90277777777777)"/><use xlink:href="#b" transform="matrix(1,0,0,1,-137.02869343849818,1365) translate(53.39506172839506 123.56944444444446)"/><path d="M2660 400v-600l260 133.2v333.6L2660 400" stroke="#000" stroke-width="3" fill-opacity="0"/><path d="M2750 74.33c0-3.3 2.7-6 6-6h68c3.3 0 6 2.7 6 6v51.34c0 3.3-2.7 6-6 6h-68c-3.3 0-6-2.7-6-6z" stroke="#000" stroke-opacity="0" stroke-width="3" fill="#fff" fill-opacity="0"/><use xlink:href="#c" transform="matrix(1,0,0,1,2755,73.33333333333333) translate(10.370370370370374 17.77777777777778)"/><use xlink:href="#d" transform="matrix(1,0,0,1,2755,73.33333333333333) translate(7.222222222222225 44.44444444444444)"/><path d="M-37.36 1311.5h-18.47l-2.45.66-1.6 1.6-.65 2.44v40.8h-3v-41.2l.98-3.6 2.72-2.72 3.6-.98h18.87zm43.44 0H-6.5v-3H6.08zm2785.42-7.3l-.98 3.6-2.7 2.72-3.62.98H20.9v-3h2762.9l2.45-.66 1.6-1.6.65-2.44V540.1h3zm0-790.77h-3v-63.18h3zm0-89.85h-3v-87h3z" fill="#5e5e5e"/><path d="M-60.53 1358.5h-3v-1.54h3zM2791.5 336.62h-3v-.77l3-1.53z" fill="#5e5e5e"/><use xlink:href="#e" transform="matrix(1,0,0,1,-37.36274768761268,1296.6666666666667) translate(0 17.77777777777778)"/><use xlink:href="#e" transform="matrix(1,0,0,1,2774.567901234568,423.57950990088756) translate(0 17.77777777777778)"/><use xlink:href="#f" transform="matrix(1,0,0,1,6.080574346404644,1296.6666666666667) translate(0 17.77777777777778)"/><use xlink:href="#f" transform="matrix(1,0,0,1,2782.5925925925926,513.4268158244287) translate(0 17.77777777777778)"/><path d="M-840 1446c0-3.3 2.7-6 6-6h88c3.3 0 6 2.7 6 6v48c0 3.3-2.7 6-6 6h-88c-3.3 0-6-2.7-6-6z" stroke="#000" stroke-opacity="0" stroke-width="3" fill="#fff" fill-opacity="0"/><use xlink:href="#g" transform="matrix(1,0,0,1,-835,1445.0000000000005) translate(6.111111111111114 30.27777777777778)"/><path d="M-540 1364.67c0-2.58 2.1-4.67 4.67-4.67 2.58 0 4.67 2.1 4.67 4.67v210.66c0 2.58-2.1 4.67-4.67 4.67-2.58 0-4.67-2.1-4.67-4.67z" stroke="#5e5e5e" stroke-width="3"/><path d="M-710.24 1471.5h-28.26v-3h28.26zm167.24 0h-148.72v-3H-543z" fill="#5e5e5e"/><path d="M-738.46 1471.5H-740v-3h1.54zM-541.5 1471.5h-1.54v-3h1.54z" fill="#5e5e5e"/><use xlink:href="#h" transform="matrix(1,0,0,1,-710.2388773016692,1456.6666666666672) translate(0 17.77777777777778)"/><path d="M-240.66 1391.5h-287v-3h287zm95.63 0h-68.47v-3h68.47z" fill="#5e5e5e"/><path d="M-143.53 1391.5h-1.54v-3h1.54zM-527.62 1391.5h-1.54v-3h1.54z" fill="#5e5e5e"/><use xlink:href="#i" transform="matrix(1,0,0,1,-240.66244014813745,1376.6734572691446) translate(0 17.77777777777778)"/><path d="M-237.02 1444.82h-290.64v-3h290.64zm92 0h-64.84v-3h64.83z" fill="#5e5e5e"/><path d="M-143.53 1444.82h-1.54v-3h1.54zM-527.62 1444.82h-1.54v-3h1.54z" fill="#5e5e5e"/><use xlink:href="#j" transform="matrix(1,0,0,1,-237.02414376161244,1429.9886384304539) translate(0 17.77777777777778)"/><path d="M-237.02 1498.14h-290.64v-3h290.64zm92 0h-64.84v-3h64.83z" fill="#5e5e5e"/><path d="M-143.53 1498.14h-1.54v-3h1.54zM-527.62 1498.14h-1.54v-3h1.54z" fill="#5e5e5e"/><use xlink:href="#k" transform="matrix(1,0,0,1,-237.02414376161246,1483.303819591763) translate(0 17.77777777777778)"/><path d="M-235.2 1542.12h-292.46v-3h292.46zm90.17 0h-63v-3h63z" fill="#5e5e5e"/><path d="M-143.53 1542.12h-1.54v-3h1.54zM-527.62 1542.12h-1.54v-3h1.54z" fill="#5e5e5e"/><use xlink:href="#l" transform="matrix(1,0,0,1,-235.20499556834991,1527.288844049843) translate(0 17.77777777777778)"/><path d="M-280 400.92c0-3.32 2.7-6 6-6h28c3.3 0 6 2.68 6 6v30.5c0 3.3-2.7 6-6 6h-28c-3.3 0-6-2.7-6-6z" stroke="#000" stroke-opacity="0" stroke-width="3" fill="#fff" fill-opacity="0"/><use xlink:href="#m" transform="matrix(1,0,0,1,-275,399.9166666666667) translate(7.006172839506173 21.90277777777778)"/><path d="M-196.1 417.67h-42.4v-3h42.4zm420.4 0H-165.2v-3H224.3zm145.2 0H240.3v-3h129.2z" fill="#5e5e5e"/><path d="M-238.46 417.67H-240v-3h1.54zM370.98 415.4l.06 2.1.07.17h-1.64v-3h1.77z" fill="#5e5e5e"/><use xlink:href="#e" transform="matrix(1,0,0,1,-196.08609915742622,402.83333333333326) translate(0 17.77777777777778)"/><use xlink:href="#n" transform="matrix(1,0,0,1,224.31160961853936,402.83333333333326) translate(0 17.77777777777778)"/><path d="M380-817.26v-154.38c0-.1-.08-.18-.18-.18-.1 0-.18-.08-.18-.18v-23.23c0-.1.08-.18.18-.18.1 0 .18-.1.18-.2V-1043M380-817.3v1.54M380-1043v-1.52M379.1 405.52v-511.2" stroke="#5e5e5e" stroke-width="3" fill="none"/><path d="M380.6 406.96l-2.55.1-.44.23v-1.82h3zM378.34-107.17l2.1-.06.17-.07v1.65h-3v-1.77z" fill="#5e5e5e"/><path d="M379.1-125.97V-818.5" stroke="#5e5e5e" stroke-width="3" fill="none"/><path d="M380.6-124.24l-.72-.26-2.1.06-.17.07V-126h3z" fill="#5e5e5e"/><path d="M379.1-818.46V-820" stroke="#5e5e5e" stroke-width="3" fill="none"/><path d="M2770 282.33c0-3.3 2.7-6 6-6h28c3.3 0 6 2.7 6 6v35.34c0 3.3-2.7 6-6 6h-28c-3.3 0-6-2.7-6-6z" stroke="#000" stroke-opacity="0" stroke-width="10" fill="#fff" fill-opacity="0"/><use xlink:href="#o" transform="matrix(1,0,0,1,2775,281.3333333333333) translate(4.6296296296296315 27.263888888888886)"/><path d="M2660 269c0-3.3 2.7-6 6-6h72c3.3 0 6 2.7 6 6v28c0 3.3-2.7 6-6 6h-72c-3.3 0-6-2.7-6-6z" stroke="#000" stroke-opacity="0" stroke-width="10" fill="#fff" fill-opacity="0"/><use xlink:href="#p" transform="matrix(1,0,0,1,2665,268) translate(2.481481481481481 23.208333333333336)"/><use xlink:href="#q" transform="matrix(1,0,0,1,2665,268) translate(43.888888888888886 23.208333333333336)"/><path d="M2659 238c0-3.3 2.7-6 6-6h78c3.3 0 6 2.7 6 6v28c0 3.3-2.7 6-6 6h-78c-3.3 0-6-2.7-6-6z" stroke="#000" stroke-opacity="0" stroke-width="10" fill="#fff" fill-opacity="0"/><use xlink:href="#p" transform="matrix(1,0,0,1,2664,237) translate(4.481481481481481 23.208333333333336)"/><use xlink:href="#r" transform="matrix(1,0,0,1,2664,237) translate(45.888888888888886 23.208333333333336)"/><path d="M2661 208c0-3.3 2.7-6 6-6h62c3.3 0 6 2.7 6 6v28c0 3.3-2.7 6-6 6h-62c-3.3 0-6-2.7-6-6z" stroke="#000" stroke-opacity="0" stroke-width="10" fill="#fff" fill-opacity="0"/><use xlink:href="#p" transform="matrix(1,0,0,1,2666,207) translate(3.8888888888888893 23.208333333333336)"/><use xlink:href="#s" transform="matrix(1,0,0,1,2666,207) translate(45.29629629629629 23.208333333333336)"/><path d="M2661 179c0-3.3 2.7-6 6-6h62c3.3 0 6 2.7 6 6v28c0 3.3-2.7 6-6 6h-62c-3.3 0-6-2.7-6-6z" stroke="#000" stroke-opacity="0" stroke-width="10" fill="#fff" fill-opacity="0"/><use xlink:href="#p" transform="matrix(1,0,0,1,2666,178) translate(3.8888888888888893 23.208333333333336)"/><use xlink:href="#t" transform="matrix(1,0,0,1,2666,178) translate(45.29629629629629 23.208333333333336)"/><path d="M2664.5 128c0-3.3 2.7-6 6-6h62c3.3 0 6 2.7 6 6v28c0 3.3-2.7 6-6 6h-62c-3.3 0-6-2.7-6-6z" stroke="#000" stroke-opacity="0" stroke-width="10" fill="#fff" fill-opacity="0"/><use xlink:href="#p" transform="matrix(1,0,0,1,2669.5,127) translate(3.8888888888888893 23.208333333333336)"/><use xlink:href="#u" transform="matrix(1,0,0,1,2669.5,127) translate(45.29629629629629 23.208333333333336)"/><path d="M2650 86c0-3.3 2.7-6 6-6h88c3.3 0 6 2.7 6 6v28c0 3.3-2.7 6-6 6h-88c-3.3 0-6-2.7-6-6z" stroke="#000" stroke-opacity="0" stroke-width="10" fill="#fff" fill-opacity="0"/><use xlink:href="#p" transform="matrix(1,0,0,1,2655,85) translate(16.88888888888889 23.208333333333336)"/><use xlink:href="#v" transform="matrix(1,0,0,1,2655,85) translate(58.29629629629629 23.208333333333336)"/><path d="M2660 46c0-3.3 2.7-6 6-6h68c3.3 0 6 2.7 6 6v28c0 3.3-2.7 6-6 6h-68c-3.3 0-6-2.7-6-6z" stroke="#000" stroke-opacity="0" stroke-width="10" fill="#fff" fill-opacity="0"/><use xlink:href="#p" transform="matrix(1,0,0,1,2665,45) translate(6.888888888888889 23.208333333333336)"/><use xlink:href="#w" transform="matrix(1,0,0,1,2665,45) translate(48.29629629629629 23.208333333333336)"/><path d="M2659 6c0-3.3 2.7-6 6-6h68c3.3 0 6 2.7 6 6v28c0 3.3-2.7 6-6 6h-68c-3.3 0-6-2.7-6-6z" stroke="#000" stroke-opacity="0" stroke-width="10" fill="#fff" fill-opacity="0"/><use xlink:href="#p" transform="matrix(1,0,0,1,2664,5) translate(6.888888888888889 23.208333333333336)"/><use xlink:href="#x" transform="matrix(1,0,0,1,2664,5) translate(48.29629629629629 23.208333333333336)"/><path d="M2657.5-129.83c0-3.32 2.7-6 6-6h68c3.3 0 6 2.68 6 6v28c0 3.3-2.7 6-6 6h-68c-3.3 0-6-2.7-6-6z" stroke="#000" stroke-opacity="0" stroke-width="10" fill="#fff" fill-opacity="0"/><use xlink:href="#p" transform="matrix(1,0,0,1,2662.5,-130.83333333333331) translate(6.888888888888889 23.208333333333336)"/><use xlink:href="#y" transform="matrix(1,0,0,1,2662.5,-130.83333333333331) translate(48.29629629629629 23.208333333333336)"/><path d="M2657.5-169.83c0-3.32 2.7-6 6-6h68c3.3 0 6 2.68 6 6v28c0 3.3-2.7 6-6 6h-68c-3.3 0-6-2.7-6-6z" stroke="#000" stroke-opacity="0" stroke-width="10" fill="#fff" fill-opacity="0"/><use xlink:href="#p" transform="matrix(1,0,0,1,2662.5,-170.83333333333331) translate(6.888888888888889 23.208333333333336)"/><use xlink:href="#z" transform="matrix(1,0,0,1,2662.5,-170.83333333333331) translate(48.29629629629629 23.208333333333336)"/><path d="M2131.5 135.62l.66 2.45 1.6 1.58 2.44.67h471.43v3H2135.8l-3.6-.98-2.72-2.72-.98-3.6V-162.1h3zm525.5 4.7v3h-18.5v-3zm-529.2-390.84l2.72 2.7.98 3.62v55.43h-3v-55.03l-.66-2.45-1.6-1.6-2.44-.65h-16.17v-3h16.57zM2003-248.5v-3h34.45v3z" fill="#5e5e5e"/><path d="M2658.5 143.32h-1.54v-3h1.54zM2003.04-248.5h-1.54v-3h1.54z" fill="#5e5e5e"/><use xlink:href="#A" transform="matrix(1,0,0,1,2607.6297572448098,128.483763617841) translate(0 17.77777777777778)"/><use xlink:href="#B" transform="matrix(1,0,0,1,2037.4487058277987,-263.3333333333333) translate(0 17.77777777777778)"/><use xlink:href="#A" transform="matrix(1,0,0,1,2114.567901234568,-188.76642517169304) translate(0 17.77777777777778)"/><path d="M2171.5 93.8l.66 2.45 1.6 1.6 2.44.65h422.2v3h-422.6l-3.6-.98-2.72-2.7-.98-3.62v-530.1h3zm485.5 4.7v3h-27.74v-3zm-489.2-589.02l2.72 2.7.98 3.62v21.63h-3v-21.23l-.66-2.45-1.6-1.6-2.44-.65h-45.15v-3h45.55zM2003-488.5v-3h30.7v3z" fill="#5e5e5e"/><path d="M2658.5 101.5h-1.54v-3h1.54zM2003.04-488.5h-1.54v-3h1.54z" fill="#5e5e5e"/><use xlink:href="#A" transform="matrix(1,0,0,1,2598.3970477812227,86.66666666666667) translate(0 17.77777777777778)"/><use xlink:href="#C" transform="matrix(1,0,0,1,2033.710459004447,-503.3333333333333) translate(0 17.77777777777778)"/><use xlink:href="#A" transform="matrix(1,0,0,1,2154.567901234568,-462.5747645798088) translate(0 17.77777777777778)"/><path d="M2277.8-750.52l2.72 2.7.98 3.62v798l.66 2.45 1.6 1.6 2.44.65h313.46v3H2285.8l-3.6-.98-2.72-2.7-.98-3.62v-798l-.66-2.45-1.6-1.6-2.44-.65h-62.42v-3h62.82zM2658.5 58.5v3h-27.98v-3zm-552.65-807v-3h74.67v3zm-102.85 0v-3h25.32v3z" fill="#5e5e5e"/><path d="M2660 61.5h-1.54v-3h1.54zM2003.04-748.5h-1.54v-3h1.54z" fill="#5e5e5e"/><use xlink:href="#A" transform="matrix(1,0,0,1,2599.65571539213,46.666666666666664) translate(0 17.77777777777778)"/><use xlink:href="#D" transform="matrix(1,0,0,1,2028.3184217418234,-763.3333333333334) translate(0 17.77777777777778)"/><use xlink:href="#A" transform="matrix(1,0,0,1,2180.519400960126,-763.3333333333334) translate(0 17.77777777777778)"/><path d="M2602-78.5h-24.14v-3H2602zm55 0h-24.14v-3H2657z" fill="#5e5e5e"/><path d="M2658.5-78.5h-1.54v-3h1.54zM2577.9-78.5h-1.54v-3h1.54z" fill="#5e5e5e"/><use xlink:href="#A" transform="matrix(1,0,0,1,2601.998914734568,-93.33333333333333) translate(0 17.77777777777778)"/><path d="M2585.14-162.03l.66 2.45 1.6 1.58 2.44.67h8.66v3h-9.06l-3.6-.98-2.73-2.73-.96-3.6v-985.53h3zm70.86 4.7v3h-26.63v-3z" fill="#5e5e5e"/><path d="M2657.5-154.33h-1.54v-3h1.54zM2582.64-1148.63l2.5-.1v1.6h-3v-1.73z" fill="#5e5e5e"/><use xlink:href="#A" transform="matrix(1,0,0,1,2598.5040138459044,-169.16666666666666) translate(0 17.77777777777778)"/><path d="M3180 73.16c0-3.3 2.7-6 6-6h148c3.3 0 6 2.7 6 6v208c0 3.32-2.7 6-6 6h-148c-3.3 0-6-2.68-6-6z" stroke="#5e5e5e" stroke-width="3" fill="#fff"/><use xlink:href="#E" transform="matrix(1,0,0,1,3185,72.16304437342748) translate(51.60493827160494 110.09027777777777)"/><path d="M2935.2 101.3H2923v-3h12.2zm186.17 0h-155.32v-3h155.32zm55.63 0h-24.77v-3H3177z" fill="#5e5e5e"/><path d="M2923.04 101.3h-1.54v-3h1.54zM3178.5 101.3h-1.54v-3h1.54z" fill="#5e5e5e"/><use xlink:href="#A" transform="matrix(1,0,0,1,2935.190321549513,86.4660931262694) translate(0 17.77777777777778)"/><use xlink:href="#A" transform="matrix(1,0,0,1,3121.3697697925804,86.46609312626939) translate(0 17.77777777777778)"/><use xlink:href="#F" transform="matrix(1,0,0,1,3025.376544447338,69.13275979293607) translate(0 17.77777777777778)"/><path d="M3180 86c0-3.3 2.7-6 6-6h28c3.3 0 6 2.7 6 6v30c0 3.3-2.7 6-6 6h-28c-3.3 0-6-2.7-6-6z" stroke="#000" stroke-opacity="0" stroke-width="10" fill="#fff" fill-opacity="0"/><use xlink:href="#G" transform="matrix(1,0,0,1,3185,85) translate(5.407407407407408 23.333333333333332)"/><path d="M3180 251.16c0-3.3 2.7-6 6-6h68c3.3 0 6 2.7 6 6v30c0 3.32-2.7 6-6 6h-68c-3.3 0-6-2.68-6-6z" stroke="#000" stroke-opacity="0" stroke-width="10" fill="#fff" fill-opacity="0"/><use xlink:href="#H" transform="matrix(1,0,0,1,3185,250.1630443734275) translate(15.814814814814817 23.333333333333332)"/><path d="M3180 329.67c0-3.32 2.7-6 6-6h68c3.3 0 6 2.68 6 6v30c0 3.3-2.7 6-6 6h-68c-3.3 0-6-2.7-6-6z" stroke="#000" stroke-opacity="0" stroke-width="10" fill="#fff" fill-opacity="0"/><use xlink:href="#I" transform="matrix(1,0,0,1,3185,328.66666666666663) translate(1.7407407407407476 23.333333333333332)"/><path d="M3178.5 344.67h-34c-3.3 0-6-2.7-6-6v-66.03c0-3.3 2.7-6 6-6h32.5" stroke="#5e5e5e" stroke-width="3" fill="none"/><path d="M3180 346.17h-1.54v-3h1.54zM3178.5 268.14h-1.54v-3h1.54z" fill="#5e5e5e"/><path d="M3184 282.7c-2.2 2.46-4 1.78-4-1.54v-32.58c0-3.3 1.8-4 4-1.53l12 13.36c2.2 2.47 2.2 6.47 0 8.94z" stroke="#5e5e5e" stroke-width="3" fill="#fff"/><path d="M3300 86c0-3.3 2.7-6 6-6h28c3.3 0 6 2.7 6 6v30c0 3.3-2.7 6-6 6h-28c-3.3 0-6-2.7-6-6z" stroke="#000" stroke-opacity="0" stroke-width="10" fill="#fff" fill-opacity="0"/><use xlink:href="#J" transform="matrix(1,0,0,1,3305,85) translate(4.62962962962963 23.333333333333332)"/><path d="M3359.22 102.5H3343v-3h16.22zm137.72 0H3390.1v-3h106.84zm259.73 0H3527.8v-3h228.87zm41.83 0h-10.97v-3h10.97z" fill="#5e5e5e"/><path d="M3343.04 102.5h-1.54v-3h1.54zM3800 102.5h-1.54v-3h1.54z" fill="#5e5e5e"/><use xlink:href="#A" transform="matrix(1,0,0,1,3359.22259862997,87.66666666666661) translate(0 17.77777777777778)"/><use xlink:href="#A" transform="matrix(1,0,0,1,3496.937424339319,87.66666666666661) translate(0 17.77777777777778)"/><use xlink:href="#A" transform="matrix(1,0,0,1,3756.6689185510845,87.66666666666667) translate(0 17.77777777777778)"/><path d="M3800 86c0-3.3 2.7-6 6-6h68c3.3 0 6 2.7 6 6v30c0 3.3-2.7 6-6 6h-68c-3.3 0-6-2.7-6-6z" stroke="#000" stroke-opacity="0" stroke-width="10" fill="#fff" fill-opacity="0"/><use xlink:href="#K" transform="matrix(1,0,0,1,3805,85) translate(3.580246913580247 19.77777777777778)"/><path d="M3452.4 100c0 2.3-1.6 4.17-3.62 4.17-2 0-3.64-1.87-3.64-4.17s1.63-4.17 3.64-4.17c2 0 3.63 1.87 3.63 4.17z" stroke="#5e5e5e" stroke-width="10"/><path d="M1428.37-1158.5H490.2l-2.45.66-1.6 1.6-.65 2.44V613.8l.66 2.45 1.6 1.6 2.44.65h478.55v3H489.8l-3.6-.98-2.72-2.7-.98-3.62v-1768.4l.98-3.6 2.7-2.72 3.62-.98h938.57zM3450.27 89.33h-3V-2.64h3zm0-118.63h-3v-5.42h3zm-3.7-1131.22l2.73 2.7.98 3.62V-61.4h-3v-1092.4l-.67-2.45-1.57-1.6-2.45-.65H1459.24v-3h1983.74zM1000 621.5h-.38v-3h.38z" fill="#5e5e5e"/><path d="M3450.28 91.02l-.5-.23-2.5.1v-1.6h3z" fill="#5e5e5e"/><use xlink:href="#A" transform="matrix(1,0,0,1,3433.3440855974272,-61.38841392957405) translate(0 17.77777777777778)"/><use xlink:href="#e" transform="matrix(1,0,0,1,1428.3709445124125,-1173.3333333333333) translate(0 17.77777777777778)"/><use xlink:href="#e" transform="matrix(1,0,0,1,968.7545233494457,606.6666666666666) translate(0 17.77777777777778)"/><use xlink:href="#L" transform="matrix(1,0,0,1,3400.7206288073035,-29.302673016715595) translate(0 17.77777777777778)"/><path d="M2587.28-1157.83c0 2.3-1.63 4.16-3.64 4.16-2 0-3.64-1.86-3.64-4.16s1.63-4.17 3.64-4.17c2 0 3.64 1.87 3.64 4.17z" stroke="#5e5e5e" stroke-width="10"/><path d="M2500-94c0-3.3 2.7-6 6-6h64.36c3.32 0 6 2.7 6 6v28c0 3.3-2.68 6-6 6H2506c-3.3 0-6-2.7-6-6z" stroke="#000" stroke-opacity="0" stroke-width="10" fill="#fff" fill-opacity="0"/><use xlink:href="#M" transform="matrix(1,0,0,1,2505,-95) translate(5.722222222222221 19.65277777777778)"/><path d="M2460-1214c0-3.3 2.7-6 6-6h68c3.3 0 6 2.7 6 6v28c0 3.3-2.7 6-6 6h-68c-3.3 0-6-2.7-6-6z" stroke="#000" stroke-opacity="0" stroke-width="10" fill="#fff" fill-opacity="0"/><use xlink:href="#N" transform="matrix(1,0,0,1,2465,-1215) translate(7.222222222222221 19.65277777777778)"/><path d="M1000-70V90h48V-70zM1192-70V90h48V-70z" fill="none"/><path d="M1066.72-30H1000m66.72 80H1000zm108.48-40h64.8zm-108.48-80V90H1121.2c30 0 53.52-36 53.52-80s-23.52-80-53.52-80H1066.72z" stroke="#5e5e5e" stroke-width="3" fill="#fff"/><path d="M1000 287.16v160h48v-160zM1192 287.16v160h48v-160z" fill="none"/><path d="M1069.6 327.16H1000m69.6 80H1000zm104.64-40H1240zm-116.4-64l4.8 7.84s13.68 22.4 13.68 56.16-13.68 56.16-13.68 56.16l-4.8 7.84h41.28c5.76 0 18.24 0 32.64-7.68 14.16-7.84 30-23.52 42.48-54.08v-4.48c-24.72-61.12-63.84-61.76-75.12-61.76h-41.28z" stroke="#5e5e5e" stroke-width="3" fill="#fff"/><path d="M968.17 408.66h-472.8v-3h472.8zM1000 408.66h-.96v-3h.96z" fill="#5e5e5e"/><path d="M495.4 408.66h-1.77l.26-.73-.07-2.1-.07-.17h1.64z" fill="#5e5e5e"/><use xlink:href="#e" transform="matrix(1,0,0,1,968.1740799765104,393.8297110400942) translate(0 17.77777777777778)"/><path d="M966.8 328.66H388.73v-3h578.1zm31.7 0h-.82v-3h.82z" fill="#5e5e5e"/><path d="M1000 328.66h-1.54v-3h1.54zM388.76 328.66H387l.24-.73-.06-2.1-.07-.17h1.66z" fill="#5e5e5e"/><use xlink:href="#e" transform="matrix(1,0,0,1,966.8138698996386,313.8297110400942) translate(0 17.77777777777778)"/><path d="M968.26 51.5H494.3v-3h473.96zM1000 51.5h-.88v-3h.88z" fill="#5e5e5e"/><path d="M494.35 51.5h-1.74l.24-.5-.1-2.5h1.6z" fill="#5e5e5e"/><use xlink:href="#e" transform="matrix(1,0,0,1,968.2579185401204,36.66666666666668) translate(0 17.77777777777778)"/><path d="M966.9-28.5H391.2v-3h575.7zm31.6 0h-.75v-3h.75z" fill="#5e5e5e"/><path d="M1000-28.5h-1.54v-3h1.54zM391.24-28.5h-1.73l.24-.5-.1-2.5h1.6z" fill="#5e5e5e"/><use xlink:href="#e" transform="matrix(1,0,0,1,966.8856717474185,-43.33333333333331) translate(0 17.77777777777778)"/><path d="M1090-4c0-3.3 2.7-6 6-6h48c3.3 0 6 2.7 6 6v28c0 3.3-2.7 6-6 6h-48c-3.3 0-6-2.7-6-6z" stroke="#000" stroke-opacity="0" stroke-width="10" fill="#fff" fill-opacity="0"/><use xlink:href="#O" transform="matrix(1,0,0,1,1095,-5) translate(1.60493827160494 19.65277777777778)"/><path d="M1090 353.16c0-3.3 2.7-6 6-6h48c3.3 0 6 2.7 6 6v28c0 3.32-2.7 6-6 6h-48c-3.3 0-6-2.68-6-6z" stroke="#000" stroke-opacity="0" stroke-width="10" fill="#fff" fill-opacity="0"/><use xlink:href="#P" transform="matrix(1,0,0,1,1095,352.1630443734275) translate(8.3641975308642 19.65277777777778)"/><path d="M488.86 407.16c0 2.3-1.63 4.17-3.64 4.17-2 0-3.63-1.87-3.63-4.17s1.6-4.16 3.62-4.16c2 0 3.64 1.86 3.64 4.16zM382.22 327.16c0 2.3-1.63 4.17-3.64 4.17-2 0-3.64-1.87-3.64-4.17s1.63-4.16 3.64-4.16c2 0 3.64 1.86 3.64 4.16zM380.53-33.64c2.3 0 4.17 1.63 4.17 3.64 0 2-1.87 3.64-4.17 3.64S376.36-28 376.36-30c0-2 1.87-3.64 4.17-3.64zM483.64 46.36c2.3 0 4.16 1.63 4.16 3.64 0 2-1.86 3.64-4.16 3.64S479.47 52 479.47 50c0-2 1.87-3.64 4.17-3.64z" stroke="#5e5e5e" stroke-width="10"/><path d="M1720-834c0-3.3 2.7-6 6-6h268c3.3 0 6 2.7 6 6v168c0 3.3-2.7 6-6 6h-268c-3.3 0-6-2.7-6-6z" stroke="#5e5e5e" stroke-width="3" fill="#fff"/><use xlink:href="#Q" transform="matrix(1,0,0,1,1725,-835) translate(18.506172839506192 88.63888888888889)"/><use xlink:href="#R" transform="matrix(1,0,0,1,1725,-835) translate(108.20987654320989 88.63888888888889)"/><path d="M1720-574c0-3.3 2.7-6 6-6h268c3.3 0 6 2.7 6 6v168c0 3.3-2.7 6-6 6h-268c-3.3 0-6-2.7-6-6z" stroke="#5e5e5e" stroke-width="3" fill="#fff"/><use xlink:href="#Q" transform="matrix(1,0,0,1,1725,-575) translate(28.18518518518519 88.63888888888889)"/><use xlink:href="#S" transform="matrix(1,0,0,1,1725,-575) translate(117.88888888888889 88.63888888888889)"/><path d="M1720-334c0-3.3 2.7-6 6-6h268c3.3 0 6 2.7 6 6v168c0 3.3-2.7 6-6 6h-268c-3.3 0-6-2.7-6-6z" stroke="#5e5e5e" stroke-width="3" fill="#fff"/><use xlink:href="#Q" transform="matrix(1,0,0,1,1725,-335) translate(41.92592592592594 88.63888888888889)"/><use xlink:href="#T" transform="matrix(1,0,0,1,1725,-335) translate(131.62962962962962 88.63888888888889)"/><path d="M484.7-703.1c2.3 0 4.16 1.62 4.16 3.63 0 2-1.86 3.64-4.16 3.64s-4.17-1.63-4.17-3.64c0-2 1.86-3.64 4.17-3.64z" stroke="#5e5e5e" stroke-width="10"/><path d="M1668.55-698.5H495.35v-3h1173.2zm48.45 0h-17.6v-3h17.6z" fill="#5e5e5e"/><path d="M495.38-698.5h-1.48l-.1-2.56-.23-.44h1.8zM1718.5-698.5h-1.54v-3h1.54z" fill="#5e5e5e"/><use xlink:href="#e" transform="matrix(1,0,0,1,1668.5472632804442,-713.3333333333334) translate(0 17.77777777777778)"/><path d="M1664.4-814.86H404l-.9.38H381.5v-3h20.48l.9-.38h1261.5zm52.6 0h-21.74v-3H1717z" fill="#5e5e5e"/><path d="M381.54-814.48H380v-3h1.54zM1718.5-814.86h-1.54v-3h1.54z" fill="#5e5e5e"/><use xlink:href="#e" transform="matrix(1,0,0,1,1664.393463639037,-829.695360105165) translate(0 17.77777777777778)"/><path d="M381.14 533.8l.66 2.45 1.6 1.6 2.44.65h575.7v3h-576.1l-3.6-.98-2.73-2.7-.96-3.62V426.84h3zm617.36 4.7v3h-6.08v-3z" fill="#5e5e5e"/><path d="M1000 541.5h-1.54v-3h1.54zM378.64 425.37l2.5-.1v1.6h-3v-1.73z" fill="#5e5e5e"/><use xlink:href="#e" transform="matrix(1,0,0,1,961.5519173367968,526.6666666666666) translate(0 17.77777777777778)"/><path d="M383.28 416.17c0 2.3-1.63 4.16-3.64 4.16-2 0-3.64-1.86-3.64-4.16s1.63-4.17 3.64-4.17c2 0 3.64 1.87 3.64 4.17z" stroke="#5e5e5e" stroke-width="10"/><path d="M2657.5-94c0-3.3 2.7-6 6-6h68c3.3 0 6 2.7 6 6v28c0 3.3-2.7 6-6 6h-68c-3.3 0-6-2.7-6-6z" stroke="#000" stroke-opacity="0" stroke-width="10" fill="#fff" fill-opacity="0"/><use xlink:href="#p" transform="matrix(1,0,0,1,2662.5,-95) translate(6.888888888888889 23.208333333333336)"/><use xlink:href="#U" transform="matrix(1,0,0,1,2662.5,-95) translate(48.29629629629629 23.208333333333336)"/><path d="M2658-61.92c0-3.3 2.7-6 6-6h68c3.3 0 6 2.7 6 6v28c0 3.32-2.7 6-6 6h-68c-3.3 0-6-2.68-6-6z" stroke="#000" stroke-opacity="0" stroke-width="10" fill="#fff" fill-opacity="0"/><use xlink:href="#p" transform="matrix(1,0,0,1,2663,-62.91666666666666) translate(6.888888888888889 23.208333333333336)"/><use xlink:href="#V" transform="matrix(1,0,0,1,2663,-62.91666666666666) translate(48.29629629629629 23.208333333333336)"/><path d="M2500-61.92c0-3.3 2.7-6 6-6h64.36c3.32 0 6 2.7 6 6v28c0 3.32-2.68 6-6 6H2506c-3.3 0-6-2.68-6-6z" stroke="#000" stroke-opacity="0" stroke-width="10" fill="#fff" fill-opacity="0"/><use xlink:href="#W" transform="matrix(1,0,0,1,2505,-62.91666666666666) translate(5.722222222222221 19.65277777777778)"/><path d="M2601.75-46.42h-23.9v-3h23.9zm54.75 0h-23.9v-3h23.9z" fill="#5e5e5e"/><path d="M2577.9-46.42h-1.54v-3h1.54zM2658-46.42h-1.54v-3h1.54z" fill="#5e5e5e"/><use xlink:href="#A" transform="matrix(1,0,0,1,2601.748914734568,-61.24999999999999) translate(0 17.77777777777778)"/><path d="M2527.55-114.33H389.78v-3h2137.77zm128.45 0h-97.6v-3h97.6z" fill="#5e5e5e"/><path d="M2657.5-114.33h-1.54v-3h1.54zM389.82-114.33h-1.73l.22-.5-.1-2.5h1.6z" fill="#5e5e5e"/><use xlink:href="#A" transform="matrix(1,0,0,1,2527.545286539895,-129.16666666666666) translate(0 17.77777777777778)"/><path d="M379.1-119.47c2.3 0 4.18 1.63 4.18 3.64 0 2-1.87 3.63-4.17 3.63s-4.16-1.62-4.16-3.63c0-2 1.87-3.64 4.17-3.64zM383.28-815.83c0 2.3-1.63 4.16-3.64 4.16-2 0-3.64-1.86-3.64-4.16s1.63-4.17 3.64-4.17c2 0 3.64 1.87 3.64 4.17z" stroke="#5e5e5e" stroke-width="10"/><path d="M1647.98-531.42H380.6v-3H1648zm69.02 0h-38.16v-3H1717z" fill="#5e5e5e"/><path d="M1718.5-531.42h-1.54v-3h1.54zM380.65-531.42h-1.54v-3h1.55z" fill="#5e5e5e"/><use xlink:href="#e" transform="matrix(1,0,0,1,1647.977621635848,-546.2531808705538) translate(0 17.77777777777778)"/><path d="M1658.5-431.33H495.37v-3H1658.5zm58.5 0h-27.63v-3H1717z" fill="#5e5e5e"/><path d="M1718.5-431.33h-1.54v-3h1.54zM495.4-431.33h-1.77l.26-.73-.07-2.1-.07-.17h1.64z" fill="#5e5e5e"/><use xlink:href="#e" transform="matrix(1,0,0,1,1658.5036112244618,-446.1608593816182) translate(0 17.77777777777778)"/><path d="M1658.5-292.6H389.83v-3H1658.5zm58.5 0h-27.63v-3H1717z" fill="#5e5e5e"/><path d="M1718.5-292.6h-1.54v-3h1.54zM389.87-292.6h-2.06l.86-2.46v-.54h1.2z" fill="#5e5e5e"/><use xlink:href="#e" transform="matrix(1,0,0,1,1658.5036112244618,-307.43641380923356) translate(0 17.77777777777778)"/><path d="M1647.98-208.3H494.84v-3h1153.14zm69.02 0h-38.16v-3H1717z" fill="#5e5e5e"/><path d="M1718.5-208.3h-1.54v-3h1.54zM494.87-208.3h-1.76l.26-.74-.06-2.1-.07-.17h1.64z" fill="#5e5e5e"/><use xlink:href="#e" transform="matrix(1,0,0,1,1647.977621635848,-223.14814308170875) translate(0 17.77777777777778)"/><path d="M383.28-533.83c0 2.3-1.63 4.16-3.64 4.16-2 0-3.64-1.86-3.64-4.16s1.63-4.17 3.64-4.17c2 0 3.64 1.87 3.64 4.17zM488.86-432.83c0 2.3-1.63 4.17-3.64 4.17-2 0-3.63-1.87-3.63-4.17s1.6-4.16 3.62-4.16c2 0 3.64 1.87 3.64 4.17zM383.64-295.83c0 2.3-1.63 4.16-3.64 4.16-2 0-3.64-1.86-3.64-4.16S378-300 380-300c2 0 3.64 1.87 3.64 4.17zM488.33-209.8c0 2.3-1.63 4.15-3.63 4.15s-3.64-1.86-3.64-4.16c0-2.32 1.63-4.18 3.64-4.18 2 0 3.63 1.86 3.63 4.17z" stroke="#5e5e5e" stroke-width="10"/><path d="M1720-1074c0-3.3 2.7-6 6-6h268c3.3 0 6 2.7 6 6v168c0 3.3-2.7 6-6 6h-268c-3.3 0-6-2.7-6-6z" stroke="#5e5e5e" stroke-width="3" fill="#fff"/><use xlink:href="#Q" transform="matrix(1,0,0,1,1725,-1075) translate(48.70987654320989 88.63888888888889)"/><use xlink:href="#X" transform="matrix(1,0,0,1,1725,-1075) translate(138.41358024691357 88.63888888888889)"/><path d="M1653.15-1043.02H381.5v-3h1271.65zm63.85 0h-32.98v-3H1717z" fill="#5e5e5e"/><path d="M1718.5-1043.02h-1.54v-3h1.54zM381.54-1043.02H380v-3h1.54z" fill="#5e5e5e"/><use xlink:href="#e" transform="matrix(1,0,0,1,1653.151171627402,-1057.8574912645784) translate(0 17.77777777777778)"/><path d="M1651-944.66H495.38v-3H1651zm66 0h-35.13v-3H1717z" fill="#5e5e5e"/><path d="M1718.5-944.66h-1.54v-3h1.54zM495.4-944.66h-1.8l.3-.87-.07-2.1 1.58-.03z" fill="#5e5e5e"/><use xlink:href="#e" transform="matrix(1,0,0,1,1651.0060240858716,-959.4939624134965) translate(0 17.77777777777778)"/><path d="M488.86-946.3c0 2.3-1.63 4.17-3.64 4.17-2 0-3.63-1.87-3.63-4.17s1.6-4.16 3.62-4.16c2 0 3.64 1.86 3.64 4.16z" stroke="#5e5e5e" stroke-width="10"/><path d="M2328.06-990.52l2.7 2.7 1 3.62v998l.65 2.45 1.6 1.6 2.45.65h264.46v3h-264.85l-3.6-.98-2.72-2.7-.98-3.62v-998l-.66-2.45-1.6-1.6-2.45-.65H2214.6v-3h109.85zM2657.5 18.5v3h-25.72v-3zm-565.58-1007v-3h91.8v3zm-88.92 0v-3h11.38v3z" fill="#5e5e5e"/><path d="M2659 21.5h-1.54v-3h1.54zM2003.04-988.5h-1.54v-3h1.54z" fill="#5e5e5e"/><use xlink:href="#Y" transform="matrix(1,0,0,1,2014.384508284264,-1003.3333333333334) translate(0 17.77777777777778)"/><use xlink:href="#A" transform="matrix(1,0,0,1,2183.7232844828,-1003.3333333333334) translate(0 17.77777777777778)"/><use xlink:href="#A" transform="matrix(1,0,0,1,2600.9143830030366,6.666666666666666) translate(0 17.77777777777778)"/><path d="M2660 300c0-3.3 2.7-6 6-6h71c3.3 0 6 2.7 6 6v28c0 3.3-2.7 6-6 6h-71c-3.3 0-6-2.7-6-6z" stroke="#000" stroke-opacity="0" stroke-width="10" fill="#fff" fill-opacity="0"/><use xlink:href="#p" transform="matrix(1,0,0,1,2665,299) translate(0.981481481481481 23.208333333333336)"/><use xlink:href="#Z" transform="matrix(1,0,0,1,2665,299) translate(42.388888888888886 23.208333333333336)"/><path d="M2659 333c0-3.3 2.7-6 6-6h72c3.3 0 6 2.7 6 6v28c0 3.3-2.7 6-6 6h-72c-3.3 0-6-2.7-6-6z" stroke="#000" stroke-opacity="0" stroke-width="10" fill="#fff" fill-opacity="0"/><use xlink:href="#p" transform="matrix(1,0,0,1,2664,332) translate(1.481481481481481 23.208333333333336)"/><use xlink:href="#aa" transform="matrix(1,0,0,1,2664,332) translate(42.888888888888886 23.208333333333336)"/><path d="M1570 598c0-3.3 2.7-6 6-6h48c3.3 0 6 2.7 6 6v28c0 3.3-2.7 6-6 6h-48c-3.3 0-6-2.7-6-6z" stroke="#000" stroke-opacity="0" stroke-width="10" fill="#fff" fill-opacity="0"/><path d="M2940-714c0-3.3 2.7-6 6-6h208c3.3 0 6 2.7 6 6v168c0 3.3-2.7 6-6 6h-208c-3.3 0-6-2.7-6-6z" stroke="#5e5e5e" stroke-width="3" fill="#fff"/><use xlink:href="#ab" transform="matrix(1,0,0,1,2952,-708) translate(26.580246913580254 81.15277777777777)"/><use xlink:href="#ac" transform="matrix(1,0,0,1,2952,-708) translate(81.95061728395062 81.15277777777777)"/><path d="M2687.8-805.47l2.72 2.72.98 3.6v140.6l.66 2.44 1.6 1.58 2.44.66h183.23v3H2695.8l-3.6-.97-2.72-2.72-.98-3.6v-140.6l-.66-2.44-1.6-1.58-2.44-.66h-478.25v-3h478.65zm249.2 151.6v3h-39.05v-3zm-934-149.57v-3h184.03v3z" fill="#5e5e5e"/><path d="M2003.04-803.44h-1.54v-3h1.54zM2938.5-650.86h-1.54v-3h1.54z" fill="#5e5e5e"/><use xlink:href="#ad" transform="matrix(1,0,0,1,2187.029800108857,-818.2762232850685) translate(0 17.77777777777778)"/><use xlink:href="#ad" transform="matrix(1,0,0,1,2879.4268611578627,-665.68931258559) translate(0 17.77777777777778)"/><use xlink:href="#ae" transform="matrix(1,0,0,1,2003.4649841975481,-835.6095566184017) translate(0 17.77777777777778)"/><path d="M2777.8-930.3l2.72 2.72.98 3.6v229.7l.66 2.44 1.6 1.6 2.44.65h92.92v3h-93.32l-3.6-.96-2.72-2.72-.98-3.6v-229.7l-.66-2.45-1.6-1.58-2.44-.68h-564.4v-3h564.8zM2937-689.6v3h-39.36v-3zm-934-238.68v-3h187.87v3z" fill="#5e5e5e"/><path d="M2003.04-928.28h-1.54v-3h1.54zM2938.5-686.6h-1.54v-3h1.54z" fill="#5e5e5e"/><use xlink:href="#ad" transform="matrix(1,0,0,1,2190.8678664573245,-943.1097921326362) translate(0 17.77777777777778)"/><use xlink:href="#af" transform="matrix(1,0,0,1,2008.7062316561965,-925.7764587993029) translate(0 17.77777777777778)"/><use xlink:href="#ad" transform="matrix(1,0,0,1,2879.117516627789,-701.4200831110373) translate(0 17.77777777777778)"/><path d="M2217.7-543.52H2003v-3h214.7zM2880-602.2h-483.8l-2.45.67-1.6 1.6-.65 2.44v46.68l-.98 3.6-2.7 2.73-3.62.98h-147.98v-3h147.58l2.45-.66 1.6-1.58.65-2.45v-46.7l.98-3.6 2.7-2.72 3.62-.97H2880zm57 0h-38.48v-3H2937z" fill="#5e5e5e"/><path d="M2003.04-543.52h-1.54v-3h1.54zM2938.5-602.2h-1.54v-3h1.54z" fill="#5e5e5e"/><use xlink:href="#ag" transform="matrix(1,0,0,1,2016.8242755888948,-575.682125593329) translate(0 17.77777777777778)"/><use xlink:href="#ad" transform="matrix(1,0,0,1,2217.698867296277,-558.3487922599958) translate(0 17.77777777777778)"/><use xlink:href="#ad" transform="matrix(1,0,0,1,2880.0003035246864,-617.0270328852164) translate(0 17.77777777777778)"/><path d="M2217.77-297.27H2003v-3h214.77zM2880-561.97h-393.8l-2.45.67-1.6 1.58-.65 2.45v252.7l-.98 3.6-2.7 2.73-3.62.97h-237.9v-3h237.5l2.45-.66 1.6-1.6.65-2.44v-252.7l.98-3.6 2.7-2.72 3.62-.96H2880zm57 0h-38.48v-3H2937z" fill="#5e5e5e"/><path d="M2003.04-297.27h-1.54v-3h1.54zM2938.5-561.96h-1.54v-3h1.54z" fill="#5e5e5e"/><use xlink:href="#ah" transform="matrix(1,0,0,1,2014.5754746927403,-329.4350856748391) translate(0 17.77777777777778)"/><use xlink:href="#ad" transform="matrix(1,0,0,1,2217.772220194368,-312.1017523415058) translate(0 17.77777777777778)"/><use xlink:href="#ad" transform="matrix(1,0,0,1,2880.0003035246864,-576.7981562383177) translate(0 17.77777777777778)"/><path d="M2938.5-652.36" stroke="#5e5e5e" stroke-width="3" fill="none"/><path fill="#5e5e5e"/><path fill="#5e5e5e"/><path d="M3598.5-672.58v3l-217.77-.05h-179v-3h179zm-435.5 2.95v-3h20.2v3z" fill="#5e5e5e"/><path d="M3163.04-669.63h-1.54v-3h1.54zM3600-669.58h-1.54v-3h1.54z" fill="#5e5e5e"/><use xlink:href="#ad" transform="matrix(1,0,0,1,3183.2146120518996,-684.4618148513965) translate(0 17.77777777777778)"/><path d="M3381.83-631.08l.02.06h216.65v3h-217.8l-1.03-.42-.02-.06h-178.52v-3h179.68zM3163-628.5v-3h19.6v3z" fill="#5e5e5e"/><path d="M3163.04-628.5h-1.54v-3h1.54zM3600-628.02h-1.54v-3h1.54z" fill="#5e5e5e"/><use xlink:href="#ad" transform="matrix(1,0,0,1,3182.611502000145,-643.3333333333334) translate(0 17.77777777777778)"/><path d="M3182.58-582.65H3163v-3h19.58zm415.92 0h-397.4v-3h397.4z" fill="#5e5e5e"/><path d="M3163.04-582.65h-1.54v-3h1.54zM3600-582.65h-1.54v-3h1.54z" fill="#5e5e5e"/><use xlink:href="#ad" transform="matrix(1,0,0,1,3182.5784711712136,-597.4814667893498) translate(0 17.77777777777778)"/><path d="M3600-677.17c0-3.3 2.7-6 6-6h48c3.3 0 6 2.7 6 6V-665c0 3.3-2.7 6-6 6h-48c-3.3 0-6-2.7-6-6z" stroke="#000" stroke-opacity="0" stroke-width="10" fill="#fff" fill-opacity="0"/><use xlink:href="#ai" transform="matrix(1,0,0,1,3605,-678.1666666666667) translate(0.4012345679012377 17.77777777777778)"/><path d="M3600-634.56c0-3.32 2.7-6 6-6h88c3.3 0 6 2.68 6 6v10.08c0 3.3-2.7 6-6 6h-88c-3.3 0-6-2.7-6-6z" stroke="#000" stroke-opacity="0" stroke-width="10" fill="#fff" fill-opacity="0"/><use xlink:href="#aj" transform="matrix(1,0,0,1,3605,-635.5642407590316) translate(1.2654320987654302 17.77777777777778)"/><path d="M3600-592.3c0-3.33 2.7-6 6-6h108c3.3 0 6 2.67 6 6V-576c0 3.3-2.7 6-6 6h-108c-3.3 0-6-2.7-6-6z" stroke="#000" stroke-opacity="0" stroke-width="10" fill="#fff" fill-opacity="0"/><use xlink:href="#ak" transform="matrix(1,0,0,1,3605,-593.3148001226832) translate(0.154320987654323 17.77777777777778)"/><use xlink:href="#al" transform="matrix(1,0,0,1,3605,-593.3148001226832) translate(67.87037037037035 17.77777777777778)"/><use xlink:href="#am" transform="matrix(1,0,0,1,3605,-593.3148001226832) translate(97.5 17.77777777777778)"/><path d="M1000 116.33v160h48v-160zM1192 116.33v160h48v-160z" fill="none"/><path d="M1066.72 156.33H1000m66.72 80H1000zm132.48-40h40.8zm-132.48-80V276.32H1121.2c30 0 53.52-36 53.52-80s-23.52-80-53.52-80H1066.72zm132.48 80c0 7.07-5.37 12.8-12 12.8s-12-5.73-12-12.8 5.37-12.8 12-12.8 12 5.73 12 12.8" stroke="#5e5e5e" stroke-width="3" fill="#fff"/><path d="M1080 169c0-3.3 2.7-6 6-6h68c3.3 0 6 2.7 6 6v48c0 3.3-2.7 6-6 6h-68c-3.3 0-6-2.7-6-6z" stroke="#000" stroke-opacity="0" stroke-width="10" fill="#fff" fill-opacity="0"/><use xlink:href="#an" transform="matrix(1,0,0,1,1085,168) translate(3.6111111111111143 30.27777777777778)"/><path d="M378.05 152.72c2.3 0 4.17 1.63 4.17 3.64 0 2-1.87 3.64-4.17 3.64s-4.16-1.63-4.16-3.64c0-2 1.85-3.64 4.15-3.64z" stroke="#5e5e5e" stroke-width="10"/><path d="M969 157.83H380.6v-3H969zM1000 157.83h-.14v-3h.14z" fill="#5e5e5e"/><path d="M380.65 157.83h-1.54v-3h1.55z" fill="#5e5e5e"/><use xlink:href="#e" transform="matrix(1,0,0,1,968.9928269367749,142.99999999999997) translate(0 17.77777777777778)"/><path d="M485.75 234.72c2.3 0 4.17 1.63 4.17 3.64 0 2-1.87 3.64-4.17 3.64s-4.16-1.63-4.16-3.64c0-2 1.85-3.64 4.15-3.64z" stroke="#5e5e5e" stroke-width="10"/><path d="M968.57 237.83H496.13v-3h472.44zM1000 237.83h-.57v-3h.57z" fill="#5e5e5e"/><path d="M496.17 237.83h-1.27l-.04-1.06-1.04-1.94h2.35z" fill="#5e5e5e"/><use xlink:href="#e" transform="matrix(1,0,0,1,968.5679012345679,222.99999999999997) translate(0 17.77777777777778)"/><path d="M380 541.5v717M380 541.54V540M380 1258.46v1.54M484.17 618.82v444.68M485.54 617.5H484" stroke="#5e5e5e" stroke-width="3" fill="none"/><path d="M485.67 1065.2l-.5-.24-2.5.1v-1.6h3z" fill="#5e5e5e"/><path d="M484.17 1084.84v86.75c0 .03-.04.07-.1.07-.03 0-.07.04-.07.08v86.75" stroke="#5e5e5e" stroke-width="3" fill="none"/><path d="M483.17 1083.37l2.5-.1v1.6h-3v-1.73z" fill="#5e5e5e"/><path d="M484 1258.46v1.54" stroke="#5e5e5e" stroke-width="3" fill="none"/><path d="M384.7 804.17c0 2.3-1.63 4.16-3.64 4.16-2 0-3.64-1.86-3.64-4.16s1.63-4.17 3.64-4.17c2 0 3.64 1.87 3.64 4.17z" stroke="#5e5e5e" stroke-width="10"/><path d="M383.23 797.83l1.63.67h603.7v3h-604.3l-3.32-1.38-1.27-3.05 2.77-1.15zM1020 801.5h-.57v-3h.57zM382.56 795.2l-.5-.24-2.5.1V792h3z" fill="#5e5e5e"/><use xlink:href="#e" transform="matrix(1,0,0,1,988.5679012345679,786.6666666666666) translate(0 17.77777777777778)"/><path d="M489.92 874.17c0 2.3-1.63 4.16-3.64 4.16-2 0-3.64-1.86-3.64-4.16s1.63-4.17 3.64-4.17c2 0 3.64 1.87 3.64 4.17z" stroke="#5e5e5e" stroke-width="10"/><path d="M988.36 881.5H494.7v-3h493.66zM1020 881.5h-.77v-3h.77z" fill="#5e5e5e"/><path d="M494.73 881.5h-3.57l1.86-1 .7-2h1z" fill="#5e5e5e"/><use xlink:href="#e" transform="matrix(1,0,0,1,988.3649511761655,866.6666666666666) translate(0 17.77777777777778)"/><path d="M1947.06 9.48l2.7 2.7 1 3.62v171.63l.65 2.45 1.6 1.58 2.45.67h649.22v3h-649.62l-3.6-.98-2.72-2.72-.98-3.6V16.2l-.66-2.45-1.6-1.6-2.45-.65h-584.87v-3h585.27zM2657 192.13v3h-21.46v-3zM1241.5 11.5v-3h39.15v3z" fill="#5e5e5e"/><path d="M1241.54 11.5H1240v-3h1.54zM2658.5 195.13h-1.54v-3h1.54z" fill="#5e5e5e"/><use xlink:href="#A" transform="matrix(1,0,0,1,2604.6728058269614,180.29363459406264) translate(0 17.77777777777778)"/><use xlink:href="#ao" transform="matrix(1,0,0,1,1280.648514310944,-3.3333333333333197) translate(0 17.77777777777778)"/><path d="M1887.8 195.8l2.72 2.73.98 3.6v13.67l.66 2.45 1.6 1.6 2.44.65h706.65v3H1895.8l-3.6-.98-2.72-2.7-.98-3.62v-13.67l-.66-2.45-1.6-1.58-2.44-.67h-509.77v-3h510.17zm771.7 24.7v3h-25.78v-3zm-1418-22.67v-3h41.48v3z" fill="#5e5e5e"/><path d="M1241.54 197.83H1240v-3h1.54zM2661 223.5h-1.54v-3h1.54z" fill="#5e5e5e"/><use xlink:href="#A" transform="matrix(1,0,0,1,2602.853657633699,208.66666666666666) translate(0 17.77777777777778)"/><use xlink:href="#ap" transform="matrix(1,0,0,1,1282.984996017997,182.99999999999997) translate(0 17.77777777777778)"/><path d="M1296.54 368.66h-55.04v-3h55.04zm1306.3-113.5h-647.4l-2.44.66-1.6 1.6-.65 2.44v101.5l-.98 3.6-2.7 2.73-3.62.96h-586.6v-3h586.2l2.45-.66 1.6-1.6.65-2.44v-101.5l.98-3.6 2.7-2.73 3.62-.97h647.8zm54.16 0h-23.28v-3H2657z" fill="#5e5e5e"/><path d="M1241.54 368.66H1240v-3h1.54zM2658.5 255.16h-1.54v-3h1.54z" fill="#5e5e5e"/><use xlink:href="#A" transform="matrix(1,0,0,1,2602.853657633699,240.3255249717255) translate(0 17.77777777777778)"/><use xlink:href="#aq" transform="matrix(1,0,0,1,1296.5362181951048,353.8297110400942) translate(0 17.77777777777778)"/><path d="M1020 760v160h48V760zM1212 760v160h48V760z" fill="none"/><path d="M1089.6 800H1020m69.6 80H1020zm104.64-40H1260zm-116.4-64l4.8 7.84s13.68 22.4 13.68 56.16-13.68 56.16-13.68 56.16l-4.8 7.84h41.28c5.76 0 18.24 0 32.64-7.68 14.16-7.84 30-23.52 42.48-54.08v-4.48c-24.72-61.12-63.84-61.76-75.12-61.76h-41.28z" stroke="#5e5e5e" stroke-width="3" fill="#fff"/><path d="M1064.4 904c13.13 0 22.8-28.65 22.8-64s-9.67-64-21.6-64" stroke="#5e5e5e" stroke-width="3" fill="none"/><path d="M1110 826c0-3.3 2.7-6 6-6h48c3.3 0 6 2.7 6 6v28c0 3.3-2.7 6-6 6h-48c-3.3 0-6-2.7-6-6z" stroke="#000" stroke-opacity="0" stroke-width="10" fill="#fff" fill-opacity="0"/><use xlink:href="#ar" transform="matrix(1,0,0,1,1115,825) translate(0.9567901234567948 19.65277777777778)"/><path d="M1000 500v160h48V500zM1192 500v160h48V500z" fill="none"/><path d="M1069.6 540H1000m69.6 80H1000zm129.6-40h40.8zm-141.36-64l4.8 7.84s13.68 22.4 13.68 56.16-13.68 56.16-13.68 56.16l-4.8 7.84h41.28c5.76 0 18.24 0 32.64-7.68 14.16-7.84 30-23.52 42.48-54.08v-4.48c-24.72-61.12-63.84-61.76-75.12-61.76h-41.28zm141.36 64c0 7.07-5.37 12.8-12 12.8s-12-5.73-12-12.8 5.37-12.8 12-12.8 12 5.73 12 12.8" stroke="#5e5e5e" stroke-width="3" fill="#fff"/><path d="M1085 556c0-3.3 2.7-6 6-6h58c3.3 0 6 2.7 6 6v48c0 3.3-2.7 6-6 6h-58c-3.3 0-6-2.7-6-6z" stroke="#000" stroke-opacity="0" stroke-width="10" fill="#fff" fill-opacity="0"/><use xlink:href="#as" transform="matrix(1,0,0,1,1090,555) translate(5.370370370370374 30.27777777777778)"/><path d="M1293.42 581.5h-51.92v-3h51.92zm1309.43-300.87H2016.2l-2.45.66-1.6 1.58-.65 2.45V574.2l-.98 3.6-2.7 2.72-3.62.98h-636.96v-3h636.56l2.45-.66 1.6-1.6.65-2.44V284.93l.98-3.6 2.7-2.73 3.62-.97h587.05zm54.15 0h-23.28v-3H2657z" fill="#5e5e5e"/><path d="M1241.54 581.5H1240v-3h1.54zM2658.5 280.63h-1.54v-3h1.54z" fill="#5e5e5e"/><use xlink:href="#A" transform="matrix(1,0,0,1,2602.853657633699,265.793599677401) translate(0 17.77777777777778)"/><use xlink:href="#at" transform="matrix(1,0,0,1,1293.4152553223707,566.6666666666666) translate(0 17.77777777777778)"/><path d="M1301.28 841.5h-39.78v-3h39.78zM2608.3 317h-492.1l-2.45.67-1.6 1.6-.65 2.44v512.5l-.98 3.6-2.7 2.72-3.62.98h-730.27v-3h729.87l2.45-.66 1.6-1.6.65-2.44V321.3l.98-3.6 2.7-2.7 3.62-1h492.5zm48.7 0h-17.82v-3H2657z" fill="#5e5e5e"/><path d="M1261.54 841.5H1260v-3h1.54zM2658.5 317h-1.54v-3h1.54z" fill="#5e5e5e"/><use xlink:href="#A" transform="matrix(1,0,0,1,2608.3111022134863,302.1765635426506) translate(0 17.77777777777778)"/><use xlink:href="#au" transform="matrix(1,0,0,1,1301.2782678485069,826.6666666666666) translate(0 17.77777777777778)"/><path d="M1020 960v160h48V960zM1212 960v160h48V960z" fill="none"/><path d="M1089.6 1000H1020m69.6 80H1020zm104.64-40H1260zm-116.4-64l4.8 7.84s13.68 22.4 13.68 56.16-13.68 56.16-13.68 56.16l-4.8 7.84h41.28c5.76 0 18.24 0 32.64-7.68 14.16-7.84 30-23.52 42.48-54.08v-4.48c-24.72-61.12-63.84-61.76-75.12-61.76h-41.28z" stroke="#5e5e5e" stroke-width="3" fill="#fff"/><path d="M1064.4 1104c13.13 0 22.8-28.65 22.8-64s-9.67-64-21.6-64" stroke="#5e5e5e" stroke-width="3" fill="none"/><path d="M1280 1040c0 5.52-4.48 10-10 10s-10-4.48-10-10 4.48-10 10-10 10 4.48 10 10z" stroke="#000" stroke-width="4" fill="#fff"/><path d="M1100 1016c0-3.3 2.7-6 6-6h58c3.3 0 6 2.7 6 6v48c0 3.3-2.7 6-6 6h-58c-3.3 0-6-2.7-6-6z" stroke="#000" stroke-opacity="0" stroke-width="10" fill="#fff" fill-opacity="0"/><g><use xlink:href="#av" transform="matrix(1,0,0,1,1105,1015) translate(-2.037037037037038 29.444444444444443)"/></g><path d="M487.8 1074.17c0 2.3-1.62 4.16-3.63 4.16-2 0-3.64-1.86-3.64-4.16s1.63-4.17 3.64-4.17c2 0 3.63 1.87 3.63 4.17zM381.7 1004.17c0 2.3-1.64 4.16-3.65 4.16-2 0-3.64-1.86-3.64-4.16s1.64-4.17 3.65-4.17c2 0 3.64 1.87 3.64 4.17z" stroke="#5e5e5e" stroke-width="10"/><path d="M380.23 997.83l1.62.67h606.33v3H381.26l-3.33-1.38-1.26-3.05 2.77-1.15zM1020 1001.5h-.95v-3h.95zM379.55 995.2l-.5-.24-2.5.1V992h3z" fill="#5e5e5e"/><g><use xlink:href="#e" transform="matrix(1,0,0,1,988.1840993694282,986.6666666666666) translate(0 17.77777777777778)"/></g><path d="M989 1081.5H492.58v-3H989zM1020 1081.5h-.14v-3h.14z" fill="#5e5e5e"/><path d="M492.62 1081.5h-3.57l1.86-1 .7-2h1.02z" fill="#5e5e5e"/><g><use xlink:href="#e" transform="matrix(1,0,0,1,988.9967730548237,1066.6666666666667) translate(0 17.77777777777778)"/></g><path d="M1303.6 1041.5h-20.07v-3h20.08zm1301.15-689.93H2226.2l-2.45.67-1.6 1.58-.65 2.45v677.93l-.98 3.6-2.7 2.72-3.62.98h-824.4v-3h824l2.45-.66 1.6-1.6.65-2.44V355.87l.98-3.6 2.7-2.72 3.62-.98h378.95zm52.25 0h-21.4v-3h21.4z" fill="#5e5e5e"/><path d="M1283.56 1041.5h-1.78l.25-1.5-.25-1.5h1.78zM2658.5 351.57h-1.54v-3h1.54z" fill="#5e5e5e"/><g><use xlink:href="#A" transform="matrix(1,0,0,1,2604.749981731986,336.74037921463855) translate(0 17.77777777777778)"/></g><g><use xlink:href="#aw" transform="matrix(1,0,0,1,1303.6147495555606,1026.6666666666667) translate(0 17.77777777777778)"/></g><defs><path fill="#333" d="M30-248c118-7 216 8 213 122C240-48 200 0 122 0H30v-248zM63-27c89 8 146-16 146-99s-60-101-146-95v194" id="ax"/><path fill="#333" d="M30 0v-248h187v28H63v79h144v27H63v87h162V0H30" id="ay"/><path fill="#333" d="M212-179c-10-28-35-45-73-45-59 0-87 40-87 99 0 60 29 101 89 101 43 0 62-24 78-52l27 14C228-24 195 4 139 4 59 4 22-46 18-125c-6-104 99-153 187-111 19 9 31 26 39 46" id="az"/><g id="a"><use transform="matrix(0.06172839506172839,0,0,0.06172839506172839,0,0)" xlink:href="#ax"/><use transform="matrix(0.06172839506172839,0,0,0.06172839506172839,15.987654320987653,0)" xlink:href="#ay"/><use transform="matrix(0.06172839506172839,0,0,0.06172839506172839,30.80246913580247,0)" xlink:href="#az"/></g><path fill="#333" d="M155-56V0h-30v-56H8v-25l114-167h33v167h35v25h-35zm-30-156c-27 46-58 90-88 131h88v-131" id="aA"/><path fill="#333" d="M33-154v-36h34v36H33zM33 0v-36h34V0H33" id="aB"/><path fill="#333" d="M27 0v-27h64v-190l-56 39v-29l58-41h29v221h61V0H27" id="aC"/><path fill="#333" d="M110-160c48 1 74 30 74 79 0 53-28 85-80 85-65 0-83-55-86-122-5-90 50-162 133-122 14 7 22 21 27 39l-31 6c-5-40-67-38-82-6-9 19-15 44-15 74 11-20 30-34 60-33zm-7 138c34 0 49-23 49-58s-16-56-50-56c-29 0-50 16-49 49 1 36 15 65 50 65" id="aD"/><g id="b"><use transform="matrix(0.06172839506172839,0,0,0.06172839506172839,0,0)" xlink:href="#aA"/><use transform="matrix(0.06172839506172839,0,0,0.06172839506172839,12.345679012345679,0)" xlink:href="#aB"/><use transform="matrix(0.06172839506172839,0,0,0.06172839506172839,18.51851851851852,0)" xlink:href="#aC"/><use transform="matrix(0.06172839506172839,0,0,0.06172839506172839,30.864197530864196,0)" xlink:href="#aD"/></g><path fill="#333" d="M240 0l2-218c-23 76-54 145-80 218h-23L58-218 59 0H30v-248h44l77 211c21-75 51-140 76-211h43V0h-30" id="aE"/><path fill="#333" d="M232-93c-1 65-40 97-104 97C67 4 28-28 28-90v-158h33c8 89-33 224 67 224 102 0 64-133 71-224h33v155" id="aF"/><path fill="#333" d="M195 0l-74-108L45 0H8l94-129-87-119h37l69 98 67-98h37l-84 118L233 0h-38" id="aG"/><g id="c"><use transform="matrix(0.06172839506172839,0,0,0.06172839506172839,0,0)" xlink:href="#aE"/><use transform="matrix(0.06172839506172839,0,0,0.06172839506172839,18.456790123456788,0)" xlink:href="#aF"/><use transform="matrix(0.06172839506172839,0,0,0.06172839506172839,34.44444444444444,0)" xlink:href="#aG"/></g><path fill="#333" d="M126-127c33 6 58 20 58 59 0 88-139 92-164 29-3-8-5-16-6-25l32-3c6 27 21 44 54 44 32 0 52-15 52-46 0-38-36-46-79-43v-28c39 1 72-4 72-42 0-27-17-43-46-43-28 0-47 15-49 41l-32-3c6-42 35-63 81-64 48-1 79 21 79 65 0 36-21 52-52 59" id="aH"/><path fill="#333" d="M101-251c82-7 93 87 43 132L82-64C71-53 59-42 53-27h129V0H18c2-99 128-94 128-182 0-28-16-43-45-43s-46 15-49 41l-32-3c6-41 34-60 81-64" id="aI"/><g id="d"><use transform="matrix(0.06172839506172839,0,0,0.06172839506172839,0,0)" xlink:href="#aC"/><use transform="matrix(0.06172839506172839,0,0,0.06172839506172839,12.345679012345679,0)" xlink:href="#aD"/><use transform="matrix(0.06172839506172839,0,0,0.06172839506172839,24.691358024691358,0)" xlink:href="#aB"/><use transform="matrix(0.06172839506172839,0,0,0.06172839506172839,30.864197530864196,0)" xlink:href="#aH"/><use transform="matrix(0.06172839506172839,0,0,0.06172839506172839,43.20987654320987,0)" xlink:href="#aI"/></g><path fill="#333" d="M4 7l51-268h42L46 7H4" id="aJ"/><path fill="#333" d="M23 0v-37h61v-169l-59 37v-38l62-41h46v211h57V0H23" id="aK"/><path fill="#333" d="M115-159c48 0 72 30 72 78 0 54-30 85-83 85-64 0-91-50-91-122 0-98 58-163 141-120 15 8 21 24 27 44l-47 6c-5-31-48-31-61-4-7 14-11 33-11 60 9-17 28-27 53-27zM102-35c24 0 36-20 36-45s-11-43-37-43c-23 0-36 14-36 38 0 27 11 50 37 50" id="aL"/><g id="e"><use transform="matrix(0.06172839506172839,0,0,0.06172839506172839,0,0)" xlink:href="#aJ"/><use transform="matrix(0.06172839506172839,0,0,0.06172839506172839,6.172839506172839,0)" xlink:href="#aK"/><use transform="matrix(0.06172839506172839,0,0,0.06172839506172839,18.51851851851852,0)" xlink:href="#aL"/></g><path fill="#333" d="M169-182c-1-43-94-46-97-3 18 66 151 10 154 114 3 95-165 93-204 36-6-8-10-19-12-30l50-8c3 46 112 56 116 5-17-69-150-10-154-114-4-87 153-88 188-35 5 8 8 18 10 28" id="aM"/><use transform="matrix(0.06172839506172839,0,0,0.06172839506172839,0,0)" xlink:href="#aM" id="f"/><path fill="#333" d="M140-251c81 0 123 46 123 126C263-46 219 4 140 4 59 4 17-45 17-125s42-126 123-126zm0 227c63 0 89-41 89-101s-29-99-89-99c-61 0-89 39-89 99S79-25 140-24" id="aN"/><path fill="#333" d="M115-194c55 1 70 41 70 98S169 2 115 4C84 4 66-9 55-30l1 105H24l-1-265h31l2 30c10-21 28-34 59-34zm-8 174c40 0 45-34 45-75s-6-73-45-74c-42 0-51 32-51 76 0 43 10 73 51 73" id="aO"/><path fill="#333" d="M96-169c-40 0-48 33-48 73s9 75 48 75c24 0 41-14 43-38l32 2c-6 37-31 61-74 61-59 0-76-41-82-99-10-93 101-131 147-64 4 7 5 14 7 22l-32 3c-4-21-16-35-41-35" id="aP"/><path fill="#333" d="M100-194c62-1 85 37 85 99 1 63-27 99-86 99S16-35 15-95c0-66 28-99 85-99zM99-20c44 1 53-31 53-75 0-43-8-75-51-75s-53 32-53 75 10 74 51 75" id="aQ"/><path fill="#333" d="M85-194c31 0 48 13 60 33l-1-100h32l1 261h-30c-2-10 0-23-3-31C134-8 116 4 85 4 32 4 16-35 15-94c0-66 23-100 70-100zm9 24c-40 0-46 34-46 75 0 40 6 74 45 74 42 0 51-32 51-76 0-42-9-74-50-73" id="aR"/><path fill="#333" d="M100-194c63 0 86 42 84 106H49c0 40 14 67 53 68 26 1 43-12 49-29l28 8c-11 28-37 45-77 45C44 4 14-33 15-96c1-61 26-98 85-98zm52 81c6-60-76-77-97-28-3 7-6 17-6 28h103" id="aS"/><g id="g"><use transform="matrix(0.06172839506172839,0,0,0.06172839506172839,0,0)" xlink:href="#aN"/><use transform="matrix(0.06172839506172839,0,0,0.06172839506172839,17.28395061728395,0)" xlink:href="#aO"/><use transform="matrix(0.06172839506172839,0,0,0.06172839506172839,29.629629629629626,0)" xlink:href="#aP"/><use transform="matrix(0.06172839506172839,0,0,0.06172839506172839,40.74074074074073,0)" xlink:href="#aQ"/><use transform="matrix(0.06172839506172839,0,0,0.06172839506172839,53.08641975308641,0)" xlink:href="#aR"/><use transform="matrix(0.06172839506172839,0,0,0.06172839506172839,65.43209876543209,0)" xlink:href="#aS"/></g><path fill="#333" d="M165-50V0h-47v-50H5v-38l105-160h55v161h33v37h-33zm-47-37l2-116L46-87h72" id="aT"/><g id="h"><use transform="matrix(0.06172839506172839,0,0,0.06172839506172839,0,0)" xlink:href="#aJ"/><use transform="matrix(0.06172839506172839,0,0,0.06172839506172839,6.172839506172839,0)" xlink:href="#aT"/></g><path fill="#333" d="M128-127c34 4 56 21 59 58 7 91-148 94-172 28-4-9-6-17-7-26l51-5c1 24 16 35 40 36 23 0 39-12 38-36-1-31-31-36-65-34v-40c32 2 59-3 59-33 0-20-13-33-34-33s-33 13-35 32l-50-3c6-44 37-68 86-68 50 0 83 20 83 66 0 35-22 52-53 58" id="aU"/><g id="i"><use transform="matrix(0.06172839506172839,0,0,0.06172839506172839,0,0)" xlink:href="#aM"/><use transform="matrix(0.06172839506172839,0,0,0.06172839506172839,14.814814814814813,0)" xlink:href="#aU"/></g><path fill="#333" d="M182-182c0 78-84 86-111 141h115V0H12c-6-101 99-100 120-180 1-22-12-31-33-32-23 0-32 14-35 34l-49-3c5-45 32-70 84-70 51 0 83 22 83 69" id="aV"/><g id="j"><use transform="matrix(0.06172839506172839,0,0,0.06172839506172839,0,0)" xlink:href="#aM"/><use transform="matrix(0.06172839506172839,0,0,0.06172839506172839,14.814814814814813,0)" xlink:href="#aV"/></g><g id="k"><use transform="matrix(0.06172839506172839,0,0,0.06172839506172839,0,0)" xlink:href="#aM"/><use transform="matrix(0.06172839506172839,0,0,0.06172839506172839,14.814814814814813,0)" xlink:href="#aK"/></g><path fill="#333" d="M101-251c68 0 84 54 84 127C185-50 166 4 99 4S15-52 14-124c-1-75 17-127 87-127zm-1 216c37-5 36-46 36-89s4-89-36-89c-39 0-36 45-36 89 0 43-3 85 36 89" id="aW"/><g id="l"><use transform="matrix(0.06172839506172839,0,0,0.06172839506172839,0,0)" xlink:href="#aM"/><use transform="matrix(0.06172839506172839,0,0,0.06172839506172839,14.814814814814813,0)" xlink:href="#aW"/></g><use transform="matrix(0.06172839506172839,0,0,0.06172839506172839,0,0)" xlink:href="#ax" id="m"/><path fill="#333" d="M24-248c120-7 223 5 221 122C244-46 201 0 124 0H24v-248zM76-40c74 7 117-18 117-86 0-67-45-88-117-82v168" id="aX"/><use transform="matrix(0.06172839506172839,0,0,0.06172839506172839,0,0)" xlink:href="#aX" id="n"/><path fill="#333" d="M185-189c-5-48-123-54-124 2 14 75 158 14 163 119 3 78-121 87-175 55-17-10-28-26-33-46l33-7c5 56 141 63 141-1 0-78-155-14-162-118-5-82 145-84 179-34 5 7 8 16 11 25" id="aY"/><use transform="matrix(0.08641975308641973,0,0,0.08641975308641973,0,0)" xlink:href="#aY" id="o"/><path fill="#333" d="M106-169C34-169 62-67 57 0H25v-261h32l-1 103c12-21 28-36 61-36 89 0 53 116 60 194h-32v-121c2-32-8-49-39-48" id="aZ"/><g id="p"><use transform="matrix(0.07407407407407408,0,0,0.07407407407407408,0,0)" xlink:href="#az"/><use transform="matrix(0.07407407407407408,0,0,0.07407407407407408,19.185185185185187,0)" xlink:href="#aZ"/></g><g id="q"><use transform="matrix(0.07407407407407408,0,0,0.07407407407407408,0,0)" xlink:href="#aC"/><use transform="matrix(0.07407407407407408,0,0,0.07407407407407408,12.814814814814817,0)" xlink:href="#aC"/></g><path fill="#333" d="M101-251c68 0 85 55 85 127S166 4 100 4C33 4 14-52 14-124c0-73 17-127 87-127zm-1 229c47 0 54-49 54-102s-4-102-53-102c-51 0-55 48-55 102 0 53 5 102 54 102" id="ba"/><g id="r"><use transform="matrix(0.07407407407407408,0,0,0.07407407407407408,0,0)" xlink:href="#aC"/><use transform="matrix(0.07407407407407408,0,0,0.07407407407407408,14.814814814814817,0)" xlink:href="#ba"/></g><path fill="#333" d="M99-251c64 0 84 50 84 122C183-37 130 33 47-8c-14-7-20-23-25-40l30-5c6 39 69 39 84 7 9-19 16-44 16-74-10 22-31 35-62 35-49 0-73-33-73-83 0-54 28-83 82-83zm-1 141c31-1 51-18 51-49 0-36-14-67-51-67-34 0-49 23-49 58 0 34 15 58 49 58" id="bb"/><use transform="matrix(0.07407407407407408,0,0,0.07407407407407408,0,0)" xlink:href="#bb" id="s"/><path fill="#333" d="M134-131c28 9 52 24 51 62-1 50-34 73-85 73S17-19 16-69c0-36 21-54 49-61-75-25-45-126 34-121 46 3 78 18 79 63 0 33-17 51-44 57zm-34-11c31 1 46-15 46-44 0-28-17-43-47-42-29 0-46 13-45 42 1 28 16 44 46 44zm1 122c35 0 51-18 51-52 0-30-18-46-53-46-33 0-51 17-51 47 0 34 19 51 53 51" id="bc"/><use transform="matrix(0.07407407407407408,0,0,0.07407407407407408,0,0)" xlink:href="#bc" id="t"/><path fill="#333" d="M64 0c3-98 48-159 88-221H18v-27h164v26C143-157 98-101 97 0H64" id="bd"/><use transform="matrix(0.07407407407407408,0,0,0.07407407407407408,0,0)" xlink:href="#bd" id="u"/><use transform="matrix(0.07407407407407408,0,0,0.07407407407407408,0,0)" xlink:href="#aD" id="v"/><path fill="#333" d="M54-142c48-35 137-8 131 61C196 18 31 33 14-55l32-4c7 23 22 37 52 37 35-1 51-22 54-58 4-55-73-65-99-34H22l8-134h141v27H59" id="be"/><use transform="matrix(0.07407407407407408,0,0,0.07407407407407408,0,0)" xlink:href="#be" id="w"/><use transform="matrix(0.07407407407407408,0,0,0.07407407407407408,0,0)" xlink:href="#aA" id="x"/><use transform="matrix(0.07407407407407408,0,0,0.07407407407407408,0,0)" xlink:href="#aC" id="y"/><use transform="matrix(0.07407407407407408,0,0,0.07407407407407408,0,0)" xlink:href="#ba" id="z"/><g id="A"><use transform="matrix(0.06172839506172839,0,0,0.06172839506172839,0,0)" xlink:href="#aJ"/><use transform="matrix(0.06172839506172839,0,0,0.06172839506172839,6.172839506172839,0)" xlink:href="#aU"/><use transform="matrix(0.06172839506172839,0,0,0.06172839506172839,18.51851851851852,0)" xlink:href="#aV"/></g><path fill="#333" d="M88-194c31-1 46 15 58 34l-1-101h50l1 261h-48c-2-10 0-23-3-31C134-8 116 4 84 4 32 4 16-41 15-95c0-56 19-97 73-99zm17 164c33 0 40-30 41-66 1-37-9-64-41-64s-38 30-39 65c0 43 13 65 39 65" id="bf"/><path fill="#333" d="M25-224v-37h50v37H25zM25 0v-190h50V0H25" id="bg"/><path fill="#333" d="M128 0H69L1-190h53L99-40l48-150h52" id="bh"/><path fill="#333" d="M140-251c80 0 125 45 125 126S219 4 139 4C58 4 15-44 15-125s44-126 125-126zm-1 214c52 0 73-35 73-88 0-50-21-86-72-86-52 0-73 35-73 86s22 88 72 88" id="bi"/><path fill="#333" d="M85 4C-2 5 27-109 22-190h50c7 57-23 150 33 157 60-5 35-97 40-157h50l1 190h-47c-2-12 1-28-3-38-12 25-28 42-61 42" id="bj"/><path fill="#333" d="M115-3C79 11 28 4 28-45v-112H4v-33h27l15-45h31v45h36v33H77v99c-1 23 16 31 38 25v30" id="bk"/><g id="B"><use transform="matrix(0.06172839506172839,0,0,0.06172839506172839,0,0)" xlink:href="#bf"/><use transform="matrix(0.06172839506172839,0,0,0.06172839506172839,13.518518518518517,0)" xlink:href="#bg"/><use transform="matrix(0.06172839506172839,0,0,0.06172839506172839,19.691358024691358,0)" xlink:href="#bh"/><use transform="matrix(0.06172839506172839,0,0,0.06172839506172839,32.03703703703704,0)" xlink:href="#bi"/><use transform="matrix(0.06172839506172839,0,0,0.06172839506172839,49.32098765432099,0)" xlink:href="#bj"/><use transform="matrix(0.06172839506172839,0,0,0.06172839506172839,62.839506172839506,0)" xlink:href="#bk"/></g><path fill="#333" d="M220-157c-53 9-28 100-34 157h-49v-107c1-27-5-49-29-50C55-147 81-57 75 0H25l-1-190h47c2 12-1 28 3 38 10-53 101-56 108 0 13-22 24-43 59-42 82 1 51 116 57 194h-49v-107c-1-25-5-48-29-50" id="bl"/><path fill="#333" d="M25 0v-261h50V0H25" id="bm"/><g id="C"><use transform="matrix(0.06172839506172839,0,0,0.06172839506172839,0,0)" xlink:href="#bl"/><use transform="matrix(0.06172839506172839,0,0,0.06172839506172839,19.753086419753085,0)" xlink:href="#bj"/><use transform="matrix(0.06172839506172839,0,0,0.06172839506172839,33.2716049382716,0)" xlink:href="#bm"/><use transform="matrix(0.06172839506172839,0,0,0.06172839506172839,39.44444444444444,0)" xlink:href="#bk"/><use transform="matrix(0.06172839506172839,0,0,0.06172839506172839,46.79012345679012,0)" xlink:href="#bi"/><use transform="matrix(0.06172839506172839,0,0,0.06172839506172839,64.07407407407408,0)" xlink:href="#bj"/><use transform="matrix(0.06172839506172839,0,0,0.06172839506172839,77.5925925925926,0)" xlink:href="#bk"/></g><path fill="#333" d="M137-138c1-29-70-34-71-4 15 46 118 7 119 86 1 83-164 76-172 9l43-7c4 19 20 25 44 25 33 8 57-30 24-41C81-84 22-81 20-136c-2-80 154-74 161-7" id="bn"/><path fill="#333" d="M135-194c52 0 70 43 70 98 0 56-19 99-73 100-30 1-46-15-58-35L72 0H24l1-261h50v104c11-23 29-37 60-37zM114-30c31 0 40-27 40-66 0-37-7-63-39-63s-41 28-41 65c0 36 8 64 40 64" id="bo"/><g id="D"><use transform="matrix(0.06172839506172839,0,0,0.06172839506172839,0,0)" xlink:href="#bn"/><use transform="matrix(0.06172839506172839,0,0,0.06172839506172839,12.345679012345679,0)" xlink:href="#bj"/><use transform="matrix(0.06172839506172839,0,0,0.06172839506172839,25.864197530864196,0)" xlink:href="#bo"/><use transform="matrix(0.06172839506172839,0,0,0.06172839506172839,39.382716049382715,0)" xlink:href="#bi"/><use transform="matrix(0.06172839506172839,0,0,0.06172839506172839,56.666666666666664,0)" xlink:href="#bj"/><use transform="matrix(0.06172839506172839,0,0,0.06172839506172839,70.18518518518518,0)" xlink:href="#bk"/></g><path fill="#333" d="M205 0l-28-72H64L36 0H1l101-248h38L239 0h-34zm-38-99l-47-123c-12 45-31 82-46 123h93" id="bp"/><g id="E"><use transform="matrix(0.06172839506172839,0,0,0.06172839506172839,0,0)" xlink:href="#bp"/><use transform="matrix(0.06172839506172839,0,0,0.06172839506172839,14.814814814814813,0)" xlink:href="#az"/><use transform="matrix(0.06172839506172839,0,0,0.06172839506172839,30.80246913580247,0)" xlink:href="#az"/></g><path fill="#333" d="M230 0l2-204L168 0h-37L68-204 70 0H24v-248h70l56 185 57-185h69V0h-46" id="bq"/><use transform="matrix(0.06172839506172839,0,0,0.06172839506172839,0,0)" xlink:href="#bq" id="F"/><use transform="matrix(0.07407407407407407,0,0,0.07407407407407407,0,0)" xlink:href="#ax" id="G"/><path fill="#333" d="M24 0v-261h32V0H24" id="br"/><path fill="#333" d="M143 0L79-87 56-68V0H24v-261h32v163l83-92h37l-77 82L181 0h-38" id="bs"/><g id="H"><use transform="matrix(0.07407407407407407,0,0,0.07407407407407407,0,0)" xlink:href="#az"/><use transform="matrix(0.07407407407407407,0,0,0.07407407407407407,19.185185185185183,0)" xlink:href="#br"/><use transform="matrix(0.07407407407407407,0,0,0.07407407407407407,25.037037037037035,0)" xlink:href="#bs"/></g><g id="I"><use transform="matrix(0.07407407407407407,0,0,0.07407407407407407,0,0)" xlink:href="#az"/><use transform="matrix(0.07407407407407407,0,0,0.07407407407407407,19.185185185185183,0)" xlink:href="#br"/><use transform="matrix(0.07407407407407407,0,0,0.07407407407407407,25.037037037037035,0)" xlink:href="#aQ"/><use transform="matrix(0.07407407407407407,0,0,0.07407407407407407,39.85185185185185,0)" xlink:href="#aP"/><use transform="matrix(0.07407407407407407,0,0,0.07407407407407407,53.185185185185176,0)" xlink:href="#bs"/></g><path fill="#333" d="M140-251c81 0 123 46 123 126C263-53 228-8 163 1c7 30 30 48 69 40v23c-55 16-95-15-103-61C56-3 17-48 17-125c0-80 42-126 123-126zm0 227c63 0 89-41 89-101s-29-99-89-99c-61 0-89 39-89 99S79-25 140-24" id="bt"/><use transform="matrix(0.07407407407407407,0,0,0.07407407407407407,0,0)" xlink:href="#bt" id="J"/><path fill="#333" d="M233-177c-1 41-23 64-60 70L243 0h-38l-65-103H63V0H30v-248c88 3 205-21 203 71zM63-129c60-2 137 13 137-47 0-61-80-42-137-45v92" id="bu"/><path fill="#333" d="M135-143c-3-34-86-38-87 0 15 53 115 12 119 90S17 21 10-45l28-5c4 36 97 45 98 0-10-56-113-15-118-90-4-57 82-63 122-42 12 7 21 19 24 35" id="bv"/><path fill="#333" d="M84 4C-5 8 30-112 23-190h32v120c0 31 7 50 39 49 72-2 45-101 50-169h31l1 190h-30c-1-10 1-25-2-33-11 22-28 36-60 37" id="bw"/><path fill="#333" d="M59-47c-2 24 18 29 38 22v24C64 9 27 4 27-40v-127H5v-23h24l9-43h21v43h35v23H59v120" id="bx"/><g id="K"><use transform="matrix(0.06172839506172839,0,0,0.06172839506172839,0,0)" xlink:href="#bu"/><use transform="matrix(0.06172839506172839,0,0,0.06172839506172839,15.987654320987653,0)" xlink:href="#aS"/><use transform="matrix(0.06172839506172839,0,0,0.06172839506172839,28.333333333333332,0)" xlink:href="#bv"/><use transform="matrix(0.06172839506172839,0,0,0.06172839506172839,39.44444444444444,0)" xlink:href="#bw"/><use transform="matrix(0.06172839506172839,0,0,0.06172839506172839,51.79012345679012,0)" xlink:href="#br"/><use transform="matrix(0.06172839506172839,0,0,0.06172839506172839,56.666666666666664,0)" xlink:href="#bx"/></g><path fill="#333" d="M121-226c-27-7-43 5-38 36h38v33H83V0H34v-157H6v-33h28c-9-59 32-81 87-68v32" id="by"/><path fill="#333" d="M185-48c-13 30-37 53-82 52C43 2 14-33 14-96s30-98 90-98c62 0 83 45 84 108H66c0 31 8 55 39 56 18 0 30-7 34-22zm-45-69c5-46-57-63-70-21-2 6-4 13-4 21h74" id="bz"/><path fill="#333" d="M133-34C117-15 103 5 69 4 32 3 11-16 11-54c-1-60 55-63 116-61 1-26-3-47-28-47-18 1-26 9-28 27l-52-2c7-38 36-58 82-57s74 22 75 68l1 82c-1 14 12 18 25 15v27c-30 8-71 5-69-32zm-48 3c29 0 43-24 42-57-32 0-66-3-65 30 0 17 8 27 23 27" id="bA"/><path fill="#333" d="M190-63c-7 42-38 67-86 67-59 0-84-38-90-98-12-110 154-137 174-36l-49 2c-2-19-15-32-35-32-30 0-35 28-38 64-6 74 65 87 74 30" id="bB"/><path fill="#333" d="M147 0L96-86 75-71V0H25v-261h50v150l67-79h53l-66 74L201 0h-54" id="bC"/><g id="L"><use transform="matrix(0.06172839506172839,0,0,0.06172839506172839,0,0)" xlink:href="#by"/><use transform="matrix(0.06172839506172839,0,0,0.06172839506172839,7.345679012345679,0)" xlink:href="#bz"/><use transform="matrix(0.06172839506172839,0,0,0.06172839506172839,19.691358024691358,0)" xlink:href="#bz"/><use transform="matrix(0.06172839506172839,0,0,0.06172839506172839,32.03703703703704,0)" xlink:href="#bf"/><use transform="matrix(0.06172839506172839,0,0,0.06172839506172839,45.55555555555556,0)" xlink:href="#bo"/><use transform="matrix(0.06172839506172839,0,0,0.06172839506172839,59.074074074074076,0)" xlink:href="#bA"/><use transform="matrix(0.06172839506172839,0,0,0.06172839506172839,71.41975308641976,0)" xlink:href="#bB"/><use transform="matrix(0.06172839506172839,0,0,0.06172839506172839,83.76543209876544,0)" xlink:href="#bC"/></g><path fill="#333" d="M26 75v-336h71v23H56V52h41v23H26" id="bD"/><path fill="#333" d="M33 0v-38h34V0H33" id="bE"/><path fill="#333" d="M3 75V52h41v-290H3v-23h71V75H3" id="bF"/><g id="M"><use transform="matrix(0.06172839506172839,0,0,0.06172839506172839,0,0)" xlink:href="#bD"/><use transform="matrix(0.06172839506172839,0,0,0.06172839506172839,6.172839506172839,0)" xlink:href="#ba"/><use transform="matrix(0.06172839506172839,0,0,0.06172839506172839,18.51851851851852,0)" xlink:href="#bE"/><use transform="matrix(0.06172839506172839,0,0,0.06172839506172839,24.691358024691358,0)" xlink:href="#bE"/><use transform="matrix(0.06172839506172839,0,0,0.06172839506172839,30.864197530864196,0)" xlink:href="#bE"/><use transform="matrix(0.06172839506172839,0,0,0.06172839506172839,37.03703703703704,0)" xlink:href="#ba"/><use transform="matrix(0.06172839506172839,0,0,0.06172839506172839,49.382716049382715,0)" xlink:href="#bF"/></g><g id="N"><use transform="matrix(0.06172839506172839,0,0,0.06172839506172839,0,0)" xlink:href="#bD"/><use transform="matrix(0.06172839506172839,0,0,0.06172839506172839,6.172839506172839,0)" xlink:href="#ba"/><use transform="matrix(0.06172839506172839,0,0,0.06172839506172839,18.51851851851852,0)" xlink:href="#aB"/><use transform="matrix(0.06172839506172839,0,0,0.06172839506172839,24.691358024691358,0)" xlink:href="#aC"/><use transform="matrix(0.06172839506172839,0,0,0.06172839506172839,37.03703703703704,0)" xlink:href="#be"/><use transform="matrix(0.06172839506172839,0,0,0.06172839506172839,49.382716049382715,0)" xlink:href="#bF"/></g><path fill="#333" d="M190 0L58-211 59 0H30v-248h39L202-35l-2-213h31V0h-41" id="bG"/><g id="O"><use transform="matrix(0.06172839506172839,0,0,0.06172839506172839,0,0)" xlink:href="#bp"/><use transform="matrix(0.06172839506172839,0,0,0.06172839506172839,14.814814814814813,0)" xlink:href="#bG"/><use transform="matrix(0.06172839506172839,0,0,0.06172839506172839,30.80246913580247,0)" xlink:href="#ax"/></g><g id="P"><use transform="matrix(0.06172839506172839,0,0,0.06172839506172839,0,0)" xlink:href="#aN"/><use transform="matrix(0.06172839506172839,0,0,0.06172839506172839,17.28395061728395,0)" xlink:href="#bu"/></g><path fill="#333" d="M16-82v-28h88v28H16" id="bH"/><path fill="#333" d="M160-131c35 5 61 23 61 61C221 17 115-2 30 0v-248c76 3 177-17 177 60 0 33-19 50-47 57zm-97-11c50-1 110 9 110-42 0-47-63-36-110-37v79zm0 115c55-2 124 14 124-45 0-56-70-42-124-44v89" id="bI"/><path fill="#333" d="M24-231v-30h32v30H24zM24 0v-190h32V0H24" id="bJ"/><g id="Q"><use transform="matrix(0.08641975308641973,0,0,0.08641975308641973,0,0)" xlink:href="#aC"/><use transform="matrix(0.08641975308641973,0,0,0.08641975308641973,17.283950617283946,0)" xlink:href="#aD"/><use transform="matrix(0.08641975308641973,0,0,0.08641975308641973,34.56790123456789,0)" xlink:href="#bH"/><use transform="matrix(0.08641975308641973,0,0,0.08641975308641973,44.85185185185184,0)" xlink:href="#bI"/><use transform="matrix(0.08641975308641973,0,0,0.08641975308641973,65.59259259259258,0)" xlink:href="#bJ"/><use transform="matrix(0.08641975308641973,0,0,0.08641975308641973,72.41975308641975,0)" xlink:href="#bx"/></g><path fill="#333" d="M115-194c53 0 69 39 70 98 0 66-23 100-70 100C84 3 66-7 56-30L54 0H23l1-261h32v101c10-23 28-34 59-34zm-8 174c40 0 45-34 45-75 0-40-5-75-45-74-42 0-51 32-51 76 0 43 10 73 51 73" id="bK"/><path fill="#333" d="M114-163C36-179 61-72 57 0H25l-1-190h30c1 12-1 29 2 39 6-27 23-49 58-41v29" id="bL"/><path fill="#333" d="M141-36C126-15 110 5 73 4 37 3 15-17 15-53c-1-64 63-63 125-63 3-35-9-54-41-54-24 1-41 7-42 31l-33-3c5-37 33-52 76-52 45 0 72 20 72 64v82c-1 20 7 32 28 27v20c-31 9-61-2-59-35zM48-53c0 20 12 33 32 33 41-3 63-29 60-74-43 2-92-5-92 41" id="bM"/><g id="R"><use transform="matrix(0.08641975308641973,0,0,0.08641975308641973,0,0)" xlink:href="#aY"/><use transform="matrix(0.08641975308641973,0,0,0.08641975308641973,20.740740740740737,0)" xlink:href="#bw"/><use transform="matrix(0.08641975308641973,0,0,0.08641975308641973,38.02469135802468,0)" xlink:href="#bK"/><use transform="matrix(0.08641975308641973,0,0,0.08641975308641973,55.30864197530863,0)" xlink:href="#bx"/><use transform="matrix(0.08641975308641973,0,0,0.08641975308641973,63.950617283950606,0)" xlink:href="#bL"/><use transform="matrix(0.08641975308641973,0,0,0.08641975308641973,74.23456790123456,0)" xlink:href="#bM"/><use transform="matrix(0.08641975308641973,0,0,0.08641975308641973,91.5185185185185,0)" xlink:href="#aP"/><use transform="matrix(0.08641975308641973,0,0,0.08641975308641973,107.07407407407408,0)" xlink:href="#bx"/><use transform="matrix(0.08641975308641973,0,0,0.08641975308641973,115.71604938271605,0)" xlink:href="#aQ"/><use transform="matrix(0.08641975308641973,0,0,0.08641975308641973,132.99999999999997,0)" xlink:href="#bL"/></g><g id="S"><use transform="matrix(0.08641975308641973,0,0,0.08641975308641973,0,0)" xlink:href="#aE"/><use transform="matrix(0.08641975308641973,0,0,0.08641975308641973,25.8395061728395,0)" xlink:href="#bw"/><use transform="matrix(0.08641975308641973,0,0,0.08641975308641973,43.12345679012344,0)" xlink:href="#br"/><use transform="matrix(0.08641975308641973,0,0,0.08641975308641973,49.9506172839506,0)" xlink:href="#bx"/><use transform="matrix(0.08641975308641973,0,0,0.08641975308641973,58.59259259259257,0)" xlink:href="#bJ"/><use transform="matrix(0.08641975308641973,0,0,0.08641975308641973,65.41975308641973,0)" xlink:href="#aO"/><use transform="matrix(0.08641975308641973,0,0,0.08641975308641973,82.70370370370368,0)" xlink:href="#br"/><use transform="matrix(0.08641975308641973,0,0,0.08641975308641973,89.53086419753085,0)" xlink:href="#bJ"/><use transform="matrix(0.08641975308641973,0,0,0.08641975308641973,96.358024691358,0)" xlink:href="#aS"/><use transform="matrix(0.08641975308641973,0,0,0.08641975308641973,113.64197530864195,0)" xlink:href="#bL"/></g><path fill="#333" d="M108 0H70L1-190h34L89-25l56-165h34" id="bN"/><g id="T"><use transform="matrix(0.08641975308641973,0,0,0.08641975308641973,0,0)" xlink:href="#ax"/><use transform="matrix(0.08641975308641973,0,0,0.08641975308641973,22.38271604938271,0)" xlink:href="#bJ"/><use transform="matrix(0.08641975308641973,0,0,0.08641975308641973,29.20987654320987,0)" xlink:href="#bN"/><use transform="matrix(0.08641975308641973,0,0,0.08641975308641973,44.76543209876542,0)" xlink:href="#bJ"/><use transform="matrix(0.08641975308641973,0,0,0.08641975308641973,51.59259259259258,0)" xlink:href="#aR"/><use transform="matrix(0.08641975308641973,0,0,0.08641975308641973,68.87654320987653,0)" xlink:href="#aS"/><use transform="matrix(0.08641975308641973,0,0,0.08641975308641973,86.16049382716048,0)" xlink:href="#bL"/></g><use transform="matrix(0.07407407407407408,0,0,0.07407407407407408,0,0)" xlink:href="#aI" id="U"/><use transform="matrix(0.07407407407407408,0,0,0.07407407407407408,0,0)" xlink:href="#aH" id="V"/><g id="W"><use transform="matrix(0.06172839506172839,0,0,0.06172839506172839,0,0)" xlink:href="#bD"/><use transform="matrix(0.06172839506172839,0,0,0.06172839506172839,6.172839506172839,0)" xlink:href="#aC"/><use transform="matrix(0.06172839506172839,0,0,0.06172839506172839,18.51851851851852,0)" xlink:href="#bE"/><use transform="matrix(0.06172839506172839,0,0,0.06172839506172839,24.691358024691358,0)" xlink:href="#bE"/><use transform="matrix(0.06172839506172839,0,0,0.06172839506172839,30.864197530864196,0)" xlink:href="#bE"/><use transform="matrix(0.06172839506172839,0,0,0.06172839506172839,37.03703703703704,0)" xlink:href="#aC"/><use transform="matrix(0.06172839506172839,0,0,0.06172839506172839,49.382716049382715,0)" xlink:href="#bF"/></g><g id="X"><use transform="matrix(0.08641975308641973,0,0,0.08641975308641973,0,0)" xlink:href="#bp"/><use transform="matrix(0.08641975308641973,0,0,0.08641975308641973,20.740740740740737,0)" xlink:href="#aR"/><use transform="matrix(0.08641975308641973,0,0,0.08641975308641973,38.02469135802468,0)" xlink:href="#aR"/><use transform="matrix(0.08641975308641973,0,0,0.08641975308641973,55.30864197530863,0)" xlink:href="#aS"/><use transform="matrix(0.08641975308641973,0,0,0.08641975308641973,72.59259259259258,0)" xlink:href="#bL"/></g><g id="Y"><use transform="matrix(0.06172839506172839,0,0,0.06172839506172839,0,0)" xlink:href="#bA"/><use transform="matrix(0.06172839506172839,0,0,0.06172839506172839,12.345679012345679,0)" xlink:href="#bf"/><use transform="matrix(0.06172839506172839,0,0,0.06172839506172839,25.864197530864196,0)" xlink:href="#bf"/><use transform="matrix(0.06172839506172839,0,0,0.06172839506172839,39.382716049382715,0)" xlink:href="#bi"/><use transform="matrix(0.06172839506172839,0,0,0.06172839506172839,56.666666666666664,0)" xlink:href="#bj"/><use transform="matrix(0.06172839506172839,0,0,0.06172839506172839,70.18518518518518,0)" xlink:href="#bk"/></g><g id="Z"><use transform="matrix(0.07407407407407408,0,0,0.07407407407407408,0,0)" xlink:href="#aC"/><use transform="matrix(0.07407407407407408,0,0,0.07407407407407408,14.814814814814817,0)" xlink:href="#aI"/></g><g id="aa"><use transform="matrix(0.07407407407407408,0,0,0.07407407407407408,0,0)" xlink:href="#aC"/><use transform="matrix(0.07407407407407408,0,0,0.07407407407407408,14.814814814814817,0)" xlink:href="#aH"/></g><g id="ab"><use transform="matrix(0.06172839506172839,0,0,0.06172839506172839,0,0)" xlink:href="#ay"/><use transform="matrix(0.06172839506172839,0,0,0.06172839506172839,14.814814814814813,0)" xlink:href="#bL"/><use transform="matrix(0.06172839506172839,0,0,0.06172839506172839,22.160493827160494,0)" xlink:href="#bL"/><use transform="matrix(0.06172839506172839,0,0,0.06172839506172839,29.50617283950617,0)" xlink:href="#aQ"/><use transform="matrix(0.06172839506172839,0,0,0.06172839506172839,41.85185185185185,0)" xlink:href="#bL"/></g><path fill="#333" d="M197 0v-115H63V0H30v-248h33v105h134v-105h34V0h-34" id="bO"/><path fill="#333" d="M117-194c89-4 53 116 60 194h-32v-121c0-31-8-49-39-48C34-167 62-67 57 0H25l-1-190h30c1 10-1 24 2 32 11-22 29-35 61-36" id="bP"/><path fill="#333" d="M177-190C167-65 218 103 67 71c-23-6-38-20-44-43l32-5c15 47 100 32 89-28v-30C133-14 115 1 83 1 29 1 15-40 15-95c0-56 16-97 71-98 29-1 48 16 59 35 1-10 0-23 2-32h30zM94-22c36 0 50-32 50-73 0-42-14-75-50-75-39 0-46 34-46 75s6 73 46 73" id="bQ"/><g id="ac"><use transform="matrix(0.06172839506172839,0,0,0.06172839506172839,0,0)" xlink:href="#bO"/><use transform="matrix(0.06172839506172839,0,0,0.06172839506172839,15.987654320987653,0)" xlink:href="#bM"/><use transform="matrix(0.06172839506172839,0,0,0.06172839506172839,28.333333333333332,0)" xlink:href="#bP"/><use transform="matrix(0.06172839506172839,0,0,0.06172839506172839,40.67901234567901,0)" xlink:href="#aR"/><use transform="matrix(0.06172839506172839,0,0,0.06172839506172839,53.02469135802469,0)" xlink:href="#br"/><use transform="matrix(0.06172839506172839,0,0,0.06172839506172839,57.901234567901234,0)" xlink:href="#bJ"/><use transform="matrix(0.06172839506172839,0,0,0.06172839506172839,62.77777777777778,0)" xlink:href="#bP"/><use transform="matrix(0.06172839506172839,0,0,0.06172839506172839,75.12345679012346,0)" xlink:href="#bQ"/></g><g id="ad"><use transform="matrix(0.06172839506172839,0,0,0.06172839506172839,0,0)" xlink:href="#aJ"/><use transform="matrix(0.06172839506172839,0,0,0.06172839506172839,6.172839506172839,0)" xlink:href="#aK"/></g><path fill="#333" d="M110-194c64 0 96 36 96 99 0 64-35 99-97 99-61 0-95-36-95-99 0-62 34-99 96-99zm-1 164c35 0 45-28 45-65 0-40-10-65-43-65-34 0-45 26-45 65 0 36 10 65 43 65" id="bR"/><path fill="#333" d="M135-150c-39-12-60 13-60 57V0H25l-1-190h47c2 13-1 29 3 40 6-28 27-53 61-41v41" id="bS"/><path fill="#333" d="M231 0h-52l-39-155L100 0H48L-1-190h46L77-45c9-52 24-97 36-145h53l37 145 32-145h46" id="bT"/><g id="ae"><use transform="matrix(0.06172839506172839,0,0,0.06172839506172839,0,0)" xlink:href="#bR"/><use transform="matrix(0.06172839506172839,0,0,0.06172839506172839,13.518518518518517,0)" xlink:href="#bh"/><use transform="matrix(0.06172839506172839,0,0,0.06172839506172839,25.864197530864196,0)" xlink:href="#bz"/><use transform="matrix(0.06172839506172839,0,0,0.06172839506172839,38.20987654320987,0)" xlink:href="#bS"/><use transform="matrix(0.06172839506172839,0,0,0.06172839506172839,46.85185185185185,0)" xlink:href="#by"/><use transform="matrix(0.06172839506172839,0,0,0.06172839506172839,54.197530864197525,0)" xlink:href="#bm"/><use transform="matrix(0.06172839506172839,0,0,0.06172839506172839,60.37037037037037,0)" xlink:href="#bR"/><use transform="matrix(0.06172839506172839,0,0,0.06172839506172839,73.88888888888889,0)" xlink:href="#bT"/><use transform="matrix(0.06172839506172839,0,0,0.06172839506172839,91.17283950617283,0)" xlink:href="#aM"/><use transform="matrix(0.06172839506172839,0,0,0.06172839506172839,105.98765432098764,0)" xlink:href="#bj"/><use transform="matrix(0.06172839506172839,0,0,0.06172839506172839,119.50617283950616,0)" xlink:href="#bo"/></g><path fill="#333" d="M199 0l-22-63H83L61 0H9l90-248h61L250 0h-51zm-33-102l-36-108c-10 38-24 72-36 108h72" id="bU"/><g id="af"><use transform="matrix(0.06172839506172839,0,0,0.06172839506172839,0,0)" xlink:href="#bR"/><use transform="matrix(0.06172839506172839,0,0,0.06172839506172839,13.518518518518517,0)" xlink:href="#bh"/><use transform="matrix(0.06172839506172839,0,0,0.06172839506172839,25.864197530864196,0)" xlink:href="#bz"/><use transform="matrix(0.06172839506172839,0,0,0.06172839506172839,38.20987654320987,0)" xlink:href="#bS"/><use transform="matrix(0.06172839506172839,0,0,0.06172839506172839,46.85185185185185,0)" xlink:href="#by"/><use transform="matrix(0.06172839506172839,0,0,0.06172839506172839,54.197530864197525,0)" xlink:href="#bm"/><use transform="matrix(0.06172839506172839,0,0,0.06172839506172839,60.37037037037037,0)" xlink:href="#bR"/><use transform="matrix(0.06172839506172839,0,0,0.06172839506172839,73.88888888888889,0)" xlink:href="#bT"/><use transform="matrix(0.06172839506172839,0,0,0.06172839506172839,91.17283950617283,0)" xlink:href="#bU"/><use transform="matrix(0.06172839506172839,0,0,0.06172839506172839,107.1604938271605,0)" xlink:href="#bf"/><use transform="matrix(0.06172839506172839,0,0,0.06172839506172839,120.67901234567901,0)" xlink:href="#bf"/></g><g id="ag"><use transform="matrix(0.06172839506172839,0,0,0.06172839506172839,0,0)" xlink:href="#bR"/><use transform="matrix(0.06172839506172839,0,0,0.06172839506172839,13.518518518518517,0)" xlink:href="#bh"/><use transform="matrix(0.06172839506172839,0,0,0.06172839506172839,25.864197530864196,0)" xlink:href="#bz"/><use transform="matrix(0.06172839506172839,0,0,0.06172839506172839,38.20987654320987,0)" xlink:href="#bS"/><use transform="matrix(0.06172839506172839,0,0,0.06172839506172839,46.85185185185185,0)" xlink:href="#by"/><use transform="matrix(0.06172839506172839,0,0,0.06172839506172839,54.197530864197525,0)" xlink:href="#bm"/><use transform="matrix(0.06172839506172839,0,0,0.06172839506172839,60.37037037037037,0)" xlink:href="#bR"/><use transform="matrix(0.06172839506172839,0,0,0.06172839506172839,73.88888888888889,0)" xlink:href="#bT"/><use transform="matrix(0.06172839506172839,0,0,0.06172839506172839,91.17283950617283,0)" xlink:href="#bq"/><use transform="matrix(0.06172839506172839,0,0,0.06172839506172839,109.62962962962962,0)" xlink:href="#bj"/><use transform="matrix(0.06172839506172839,0,0,0.06172839506172839,123.14814814814814,0)" xlink:href="#bm"/></g><g id="ah"><use transform="matrix(0.06172839506172839,0,0,0.06172839506172839,0,0)" xlink:href="#bR"/><use transform="matrix(0.06172839506172839,0,0,0.06172839506172839,13.518518518518517,0)" xlink:href="#bh"/><use transform="matrix(0.06172839506172839,0,0,0.06172839506172839,25.864197530864196,0)" xlink:href="#bz"/><use transform="matrix(0.06172839506172839,0,0,0.06172839506172839,38.20987654320987,0)" xlink:href="#bS"/><use transform="matrix(0.06172839506172839,0,0,0.06172839506172839,46.85185185185185,0)" xlink:href="#by"/><use transform="matrix(0.06172839506172839,0,0,0.06172839506172839,54.197530864197525,0)" xlink:href="#bm"/><use transform="matrix(0.06172839506172839,0,0,0.06172839506172839,60.37037037037037,0)" xlink:href="#bR"/><use transform="matrix(0.06172839506172839,0,0,0.06172839506172839,73.88888888888889,0)" xlink:href="#bT"/><use transform="matrix(0.06172839506172839,0,0,0.06172839506172839,91.17283950617283,0)" xlink:href="#aX"/><use transform="matrix(0.06172839506172839,0,0,0.06172839506172839,107.1604938271605,0)" xlink:href="#bg"/><use transform="matrix(0.06172839506172839,0,0,0.06172839506172839,113.33333333333333,0)" xlink:href="#bh"/></g><g id="ai"><use transform="matrix(0.06172839506172839,0,0,0.06172839506172839,0,0)" xlink:href="#ay"/><use transform="matrix(0.06172839506172839,0,0,0.06172839506172839,14.814814814814813,0)" xlink:href="#bL"/><use transform="matrix(0.06172839506172839,0,0,0.06172839506172839,22.160493827160494,0)" xlink:href="#bL"/><use transform="matrix(0.06172839506172839,0,0,0.06172839506172839,29.50617283950617,0)" xlink:href="#aQ"/><use transform="matrix(0.06172839506172839,0,0,0.06172839506172839,41.85185185185185,0)" xlink:href="#bL"/></g><path fill="#333" d="M101-234c-31-9-42 10-38 44h38v23H63V0H32v-167H5v-23h27c-7-52 17-82 69-68v24" id="bV"/><path fill="#333" d="M206 0h-36l-40-164L89 0H53L-1-190h32L70-26l43-164h34l41 164 42-164h31" id="bW"/><g id="aj"><use transform="matrix(0.06172839506172839,0,0,0.06172839506172839,0,0)" xlink:href="#aN"/><use transform="matrix(0.06172839506172839,0,0,0.06172839506172839,17.28395061728395,0)" xlink:href="#bN"/><use transform="matrix(0.06172839506172839,0,0,0.06172839506172839,28.39506172839506,0)" xlink:href="#aS"/><use transform="matrix(0.06172839506172839,0,0,0.06172839506172839,40.74074074074074,0)" xlink:href="#bL"/><use transform="matrix(0.06172839506172839,0,0,0.06172839506172839,48.08641975308642,0)" xlink:href="#bV"/><use transform="matrix(0.06172839506172839,0,0,0.06172839506172839,54.25925925925926,0)" xlink:href="#br"/><use transform="matrix(0.06172839506172839,0,0,0.06172839506172839,59.135802469135804,0)" xlink:href="#aQ"/><use transform="matrix(0.06172839506172839,0,0,0.06172839506172839,71.48148148148148,0)" xlink:href="#bW"/></g><g id="ak"><use transform="matrix(0.06172839506172839,0,0,0.06172839506172839,0,0)" xlink:href="#ax"/><use transform="matrix(0.06172839506172839,0,0,0.06172839506172839,15.987654320987653,0)" xlink:href="#bJ"/><use transform="matrix(0.06172839506172839,0,0,0.06172839506172839,20.864197530864196,0)" xlink:href="#bN"/><use transform="matrix(0.06172839506172839,0,0,0.06172839506172839,31.975308641975307,0)" xlink:href="#bJ"/><use transform="matrix(0.06172839506172839,0,0,0.06172839506172839,36.85185185185185,0)" xlink:href="#aR"/><use transform="matrix(0.06172839506172839,0,0,0.06172839506172839,49.197530864197525,0)" xlink:href="#aS"/></g><path fill="#333" d="M179-190L93 31C79 59 56 82 12 73V49c39 6 53-20 64-50L1-190h34L92-34l54-156h33" id="bX"/><g id="al"><use transform="matrix(0.06172839506172839,0,0,0.06172839506172839,0,0)" xlink:href="#bK"/><use transform="matrix(0.06172839506172839,0,0,0.06172839506172839,12.345679012345679,0)" xlink:href="#bX"/></g><use transform="matrix(0.06172839506172839,0,0,0.06172839506172839,0,0)" xlink:href="#ba" id="am"/><g id="an"><use transform="matrix(0.06172839506172839,0,0,0.06172839506172839,0,0)" xlink:href="#bG"/><use transform="matrix(0.06172839506172839,0,0,0.06172839506172839,15.987654320987653,0)" xlink:href="#bp"/><use transform="matrix(0.06172839506172839,0,0,0.06172839506172839,30.80246913580247,0)" xlink:href="#bG"/><use transform="matrix(0.06172839506172839,0,0,0.06172839506172839,46.79012345679012,0)" xlink:href="#ax"/></g><path fill="#333" d="M135-194c87-1 58 113 63 194h-50c-7-57 23-157-34-157-59 0-34 97-39 157H25l-1-190h47c2 12-1 28 3 38 12-26 28-41 61-42" id="bY"/><g id="ao"><use transform="matrix(0.06172839506172839,0,0,0.06172839506172839,0,0)" xlink:href="#bA"/><use transform="matrix(0.06172839506172839,0,0,0.06172839506172839,12.345679012345679,0)" xlink:href="#bY"/><use transform="matrix(0.06172839506172839,0,0,0.06172839506172839,25.864197530864196,0)" xlink:href="#bf"/><use transform="matrix(0.06172839506172839,0,0,0.06172839506172839,39.382716049382715,0)" xlink:href="#bi"/><use transform="matrix(0.06172839506172839,0,0,0.06172839506172839,56.666666666666664,0)" xlink:href="#bj"/><use transform="matrix(0.06172839506172839,0,0,0.06172839506172839,70.18518518518518,0)" xlink:href="#bk"/></g><g id="ap"><use transform="matrix(0.06172839506172839,0,0,0.06172839506172839,0,0)" xlink:href="#bY"/><use transform="matrix(0.06172839506172839,0,0,0.06172839506172839,13.518518518518517,0)" xlink:href="#bA"/><use transform="matrix(0.06172839506172839,0,0,0.06172839506172839,25.864197530864196,0)" xlink:href="#bY"/><use transform="matrix(0.06172839506172839,0,0,0.06172839506172839,39.382716049382715,0)" xlink:href="#bf"/><use transform="matrix(0.06172839506172839,0,0,0.06172839506172839,52.901234567901234,0)" xlink:href="#bi"/><use transform="matrix(0.06172839506172839,0,0,0.06172839506172839,70.18518518518519,0)" xlink:href="#bj"/><use transform="matrix(0.06172839506172839,0,0,0.06172839506172839,83.70370370370371,0)" xlink:href="#bk"/></g><g id="aq"><use transform="matrix(0.06172839506172839,0,0,0.06172839506172839,0,0)" xlink:href="#bR"/><use transform="matrix(0.06172839506172839,0,0,0.06172839506172839,13.518518518518517,0)" xlink:href="#bS"/><use transform="matrix(0.06172839506172839,0,0,0.06172839506172839,22.160493827160494,0)" xlink:href="#bi"/><use transform="matrix(0.06172839506172839,0,0,0.06172839506172839,39.44444444444444,0)" xlink:href="#bj"/><use transform="matrix(0.06172839506172839,0,0,0.06172839506172839,52.96296296296296,0)" xlink:href="#bk"/></g><g id="ar"><use transform="matrix(0.06172839506172839,0,0,0.06172839506172839,0,0)" xlink:href="#aG"/><use transform="matrix(0.06172839506172839,0,0,0.06172839506172839,14.814814814814813,0)" xlink:href="#aN"/><use transform="matrix(0.06172839506172839,0,0,0.06172839506172839,32.09876543209876,0)" xlink:href="#bu"/></g><g id="as"><use transform="matrix(0.06172839506172839,0,0,0.06172839506172839,0,0)" xlink:href="#bG"/><use transform="matrix(0.06172839506172839,0,0,0.06172839506172839,15.987654320987653,0)" xlink:href="#aN"/><use transform="matrix(0.06172839506172839,0,0,0.06172839506172839,33.2716049382716,0)" xlink:href="#bu"/></g><g id="at"><use transform="matrix(0.06172839506172839,0,0,0.06172839506172839,0,0)" xlink:href="#bY"/><use transform="matrix(0.06172839506172839,0,0,0.06172839506172839,13.518518518518517,0)" xlink:href="#bR"/><use transform="matrix(0.06172839506172839,0,0,0.06172839506172839,27.037037037037035,0)" xlink:href="#bS"/><use transform="matrix(0.06172839506172839,0,0,0.06172839506172839,35.67901234567901,0)" xlink:href="#bi"/><use transform="matrix(0.06172839506172839,0,0,0.06172839506172839,52.96296296296296,0)" xlink:href="#bj"/><use transform="matrix(0.06172839506172839,0,0,0.06172839506172839,66.48148148148148,0)" xlink:href="#bk"/></g><path fill="#333" d="M144 0l-44-69L55 0H2l70-98-66-92h53l41 62 40-62h54l-67 91 71 99h-54" id="bZ"/><g id="au"><use transform="matrix(0.06172839506172839,0,0,0.06172839506172839,0,0)" xlink:href="#bZ"/><use transform="matrix(0.06172839506172839,0,0,0.06172839506172839,12.345679012345679,0)" xlink:href="#bR"/><use transform="matrix(0.06172839506172839,0,0,0.06172839506172839,25.864197530864196,0)" xlink:href="#bS"/><use transform="matrix(0.06172839506172839,0,0,0.06172839506172839,34.50617283950617,0)" xlink:href="#bi"/><use transform="matrix(0.06172839506172839,0,0,0.06172839506172839,51.79012345679012,0)" xlink:href="#bj"/><use transform="matrix(0.06172839506172839,0,0,0.06172839506172839,65.30864197530863,0)" xlink:href="#bk"/></g><g id="av"><use transform="matrix(0.06172839506172839,0,0,0.06172839506172839,0,0)" xlink:href="#aG"/><use transform="matrix(0.06172839506172839,0,0,0.06172839506172839,14.814814814814813,0)" xlink:href="#bG"/><use transform="matrix(0.06172839506172839,0,0,0.06172839506172839,30.80246913580247,0)" xlink:href="#aN"/><use transform="matrix(0.06172839506172839,0,0,0.06172839506172839,48.08641975308642,0)" xlink:href="#bu"/></g><g id="aw"><use transform="matrix(0.06172839506172839,0,0,0.06172839506172839,0,0)" xlink:href="#bZ"/><use transform="matrix(0.06172839506172839,0,0,0.06172839506172839,12.345679012345679,0)" xlink:href="#bY"/><use transform="matrix(0.06172839506172839,0,0,0.06172839506172839,25.864197530864196,0)" xlink:href="#bR"/><use transform="matrix(0.06172839506172839,0,0,0.06172839506172839,39.382716049382715,0)" xlink:href="#bS"/><use transform="matrix(0.06172839506172839,0,0,0.06172839506172839,48.02469135802469,0)" xlink:href="#bi"/><use transform="matrix(0.06172839506172839,0,0,0.06172839506172839,65.30864197530863,0)" xlink:href="#bj"/><use transform="matrix(0.06172839506172839,0,0,0.06172839506172839,78.82716049382715,0)" xlink:href="#bk"/></g></defs></g></svg>